<svg width="12" height="21" viewBox="0 0 12 21" fill="none" xmlns="http://www.w3.org/2000/svg">
<path d="M3.12 11.726C3.042 11.726 1.326 11.726 0.546 11.726C0.13 11.726 0 11.57 0 11.18C0 10.14 0 9.074 0 8.034C0 7.618 0.156 7.488 0.546 7.488H3.12C3.12 7.41 3.12 5.902 3.12 5.2C3.12 4.16 3.302 3.172 3.822 2.262C4.368 1.326 5.148 0.702 6.136 0.338C6.786 0.104 7.436 0 8.138 0H10.686C11.05 0 11.206 0.156 11.206 0.52V3.484C11.206 3.848 11.05 4.004 10.686 4.004C9.984 4.004 9.282 4.004 8.58 4.03C7.878 4.03 7.514 4.368 7.514 5.096C7.488 5.876 7.514 6.63 7.514 7.436H10.53C10.946 7.436 11.102 7.592 11.102 8.008V11.154C11.102 11.57 10.972 11.7 10.53 11.7C9.594 11.7 7.592 11.7 7.514 11.7V20.176C7.514 20.618 7.384 20.774 6.916 20.774C5.824 20.774 4.758 20.774 3.666 20.774C3.276 20.774 3.12 20.618 3.12 20.228C3.12 17.498 3.12 11.804 3.12 11.726Z" fill="white"/>
</svg>
