<svg width="29" height="30" viewBox="0 0 29 30" fill="none" xmlns="http://www.w3.org/2000/svg">
<g clip-path="url(#clip0_771_516)">
<path d="M8.705 4.79349C8.65748 4.05974 9.01641 3.35908 9.63967 2.96895L10.7499 2.27403C12.1194 1.41677 13.8876 2.45326 13.8086 4.06705L13.6311 7.69618L13.6311 11.3207C13.6311 12.6569 12.0721 13.3862 11.0464 12.5299L9.64356 11.1815C9.28352 10.8354 9.06598 10.3672 9.0337 9.86883L8.705 4.79349Z" fill="#1F3D2B"/>
<path d="M13.8203 18.952C13.8203 17.3514 12.0337 16.3993 10.7051 17.2918L10.059 17.7258C9.45501 18.1315 9.11901 18.8331 9.18156 19.558L9.81519 26.8998C9.87121 27.549 10.2428 28.1318 10.8062 28.459C12.1395 29.2334 13.8203 28.2771 13.8203 26.7351V18.952Z" fill="#1F3D2B"/>
<path d="M2.40078 14.7999C1.34486 14.248 1.00261 12.9011 1.66698 11.9121L1.95791 11.479C2.52376 10.6367 3.63076 10.3516 4.5331 10.8159L12.7696 15.0536C13.4705 15.4142 13.8942 16.1528 13.8517 16.9398L13.8175 17.5741C13.739 19.0275 12.1839 19.913 10.894 19.2388L2.40078 14.7999Z" fill="#1F3D2B"/>
<path d="M0.195312 7.40972C0.195312 6.64054 0.63642 5.93952 1.32985 5.60667L2.9835 4.81292C4.31118 4.17564 5.84896 5.14327 5.84896 6.61597V25.5636C5.84896 27.1441 4.10207 28.1001 2.77086 27.2482L1.1172 26.1898C0.542805 25.8222 0.195312 25.1872 0.195312 24.5053V7.40972Z" fill="#1F3D2B"/>
<path d="M20.6387 5.38724C20.6863 4.65349 20.3273 3.95283 19.7041 3.5627L18.5939 2.86778C17.2243 2.01052 15.4561 3.04701 15.5351 4.6608L15.7127 8.28993L15.7127 12.153C15.7127 13.3731 17.1495 14.0254 18.068 13.2224L19.659 11.7815C20.0444 11.4325 20.2787 10.9471 20.3123 10.4283L20.6387 5.38724Z" fill="#1F3D2B"/>
<path d="M18.0691 0.979517C16.7626 0.512888 15.4058 1.53807 15.4978 2.92241C15.5448 3.6287 15.9751 4.25241 16.6188 4.54701L22.1962 7.09988L26.2321 9.11075C27.5187 9.75178 29.0412 8.8668 29.121 7.4316L29.1283 7.29919L29.1283 6.33867C29.1283 5.49343 28.597 4.73945 27.801 4.45516L18.0691 0.979517Z" fill="#1F3D2B"/>
<path d="M15.6016 19.9333C15.6016 18.2955 17.4626 17.352 18.7837 18.3201L19.0471 18.5131C19.6063 18.9229 19.9134 19.593 19.8587 20.2841L19.2633 27.8106C19.2178 28.3859 18.9042 28.9061 18.4167 29.215C17.1958 29.9886 15.6016 29.1114 15.6016 27.666V19.9333Z" fill="#1F3D2B"/>
<path d="M26.9246 15.5943C27.9815 15.0419 28.3232 13.6933 27.6569 12.7043L27.3967 12.3181C26.8303 11.4773 25.7243 11.1933 24.8229 11.6572L16.5786 15.8997C15.8809 16.2588 15.4576 16.9927 15.4962 17.7765L15.5245 18.3502C15.5963 19.808 17.1549 20.7003 18.4484 20.0243L26.9246 15.5943Z" fill="#1F3D2B"/>
<path d="M29.1328 8.19878C29.1328 7.42961 28.6917 6.72858 27.9983 6.39574L26.3446 5.60198C25.0169 4.9647 23.4792 5.93233 23.4792 7.40503V26.3527C23.4792 27.9332 25.2261 28.8892 26.5573 28.0372L28.2109 26.9789C28.7853 26.6113 29.1328 25.9763 29.1328 25.2943V8.19878Z" fill="#1F3D2B"/>
</g>
<defs>
<clipPath id="clip0_771_516">
<rect width="29" height="30" fill="white"/>
</clipPath>
</defs>
</svg>
