<svg width="164" height="170" viewBox="0 0 164 170" fill="none" xmlns="http://www.w3.org/2000/svg">
<g filter="url(#filter0_d_731_440)">
<path d="M49.9694 24.51C49.9219 23.7762 50.2808 23.0756 50.9041 22.6855L73.825 8.33828C75.1945 7.48103 76.9627 8.51752 76.8838 10.1313L75.2243 44.0468L75.2243 75.1711C75.2243 76.8676 73.2448 77.7937 71.9425 76.7064L62.1377 68.5205L52.7609 59.5076C52.4008 59.1615 52.1833 58.6933 52.151 58.1949L49.9694 24.51Z" fill="#1F3D2B"/>
<path d="M76.213 85.7733C76.213 84.1727 74.4264 83.2206 73.0978 84.113L53.1918 97.4843C52.5878 97.8899 52.2518 98.5916 52.3144 99.3164L56.2976 145.47C56.3536 146.119 56.7223 146.7 57.2857 147.027L73.2085 156.275C74.5419 157.05 76.213 156.088 76.213 154.546V85.7733Z" fill="#1F3D2B"/>
<path d="M10.3369 75.8018C9.28102 75.25 8.93876 73.9031 9.60313 72.9141L20.1679 57.187C20.7337 56.3447 21.8407 56.0596 22.7431 56.5238L75.5572 83.6967C76.258 84.0573 76.6818 84.7959 76.6393 85.583L75.5008 106.667C75.4223 108.12 73.8672 109.005 72.5773 108.331L10.3369 75.8018Z" fill="#1F3D2B"/>
<path d="M7.21301 37.4693C7.21301 36.7001 7.65412 35.9991 8.34755 35.6663L32.9728 23.8461C34.3005 23.2088 35.8383 24.1765 35.8383 25.6492V149.347C35.8383 150.928 34.0914 151.884 32.7602 151.032L8.13491 135.272C7.56051 134.904 7.21301 134.269 7.21301 133.587V37.4693Z" fill="#1F3D2B"/>
</g>
<g filter="url(#filter1_d_731_440)">
<path d="M111.043 27.51C111.09 26.7762 110.731 26.0756 110.108 25.6855L87.187 11.3383C85.8174 10.481 84.0492 11.5175 84.1282 13.1313L85.7877 47.0468L85.7877 78.0412C85.7877 79.7592 87.8107 80.6777 89.104 79.547L97.7131 72.0205L108.21 62.5138C108.595 62.1648 108.83 61.6794 108.863 61.1606L111.043 27.51Z" fill="#1F3D2B"/>
<path d="M86.5835 6.04585C85.2277 5.56162 83.8198 6.62547 83.9153 8.06202L85.0065 24.4746C85.0553 25.2075 85.5019 25.8548 86.1698 26.1605L118.615 41.0109L150.102 56.6992C151.388 57.3402 152.911 56.4553 152.991 55.0201L153.713 42.0201L153.713 31.43C153.713 30.5847 153.182 29.8307 152.386 29.5465L86.5835 6.04585Z" fill="#1F3D2B"/>
<path d="M85.213 89.9656C85.213 88.3277 87.074 87.3842 88.3952 88.3523L106.313 101.483C106.873 101.892 107.18 102.562 107.125 103.253L103.466 149.509C103.416 150.136 103.074 150.704 102.542 151.04L88.2834 160.075C86.9518 160.919 85.213 159.962 85.213 158.386V89.9656Z" fill="#1F3D2B"/>
<path d="M150.587 79.8033C151.643 79.2509 151.985 77.9022 151.319 76.9132L140.89 61.4335C140.323 60.5927 139.217 60.3088 138.316 60.7726L85.4957 87.9538C84.7979 88.3129 84.3746 89.0469 84.4133 89.8306L85.4392 110.65C85.511 112.107 87.0696 113 88.3631 112.324L150.587 79.8033Z" fill="#1F3D2B"/>
<path d="M153.713 41.4693C153.713 40.7001 153.272 39.9991 152.579 39.6663L127.953 27.8461C126.626 27.2088 125.088 28.1765 125.088 29.6492V153.347C125.088 154.928 126.835 155.884 128.166 155.032L152.791 139.272C153.366 138.904 153.713 138.269 153.713 137.587V41.4693Z" fill="#1F3D2B"/>
</g>
<path d="M153.894 41.3572L154.852 55.7434L135.764 64.071L7.25245 133.5L7.25245 119L39.3838 99.3372L76.2524 80.5001L135.764 51L153.894 41.3572Z" fill="#FFE6A3"/>
<path d="M42.2051 106.169L47.6363 103.322L47.9093 103.843L42.4781 106.69L42.2051 106.169ZM44.8778 109.218C44.9255 109.309 44.9882 109.368 45.066 109.396C45.1479 109.421 45.2449 109.42 45.3571 109.393L45.8053 109.253C45.984 109.212 46.1059 109.254 46.1709 109.378C46.2055 109.444 46.2089 109.511 46.181 109.578C46.1572 109.643 46.0915 109.704 45.9841 109.76L43.2437 111.196C43.1403 111.251 43.053 111.27 42.9818 111.255C42.9105 111.239 42.8575 111.199 42.8229 111.132C42.7579 111.008 42.7931 110.885 42.9285 110.761L43.2987 110.472C43.3849 110.395 43.4408 110.316 43.4664 110.234C43.4919 110.152 43.4809 110.066 43.4332 109.975L39.8067 103.056C39.759 102.965 39.6942 102.906 39.6123 102.881C39.5304 102.855 39.4334 102.856 39.3212 102.883L38.873 103.023C38.6943 103.064 38.5724 103.023 38.5074 102.899C38.4706 102.829 38.4672 102.762 38.4973 102.699C38.5252 102.631 38.5909 102.571 38.6942 102.516L41.4346 101.08C41.5421 101.024 41.6294 101.004 41.6965 101.022C41.7656 101.033 41.8186 101.074 41.8554 101.144C41.9204 101.268 41.8852 101.392 41.7498 101.516L41.3796 101.804C41.2934 101.881 41.2375 101.961 41.2119 102.043C41.1905 102.122 41.2036 102.208 41.2513 102.298L44.8778 109.218ZM50.4144 106.316C50.4621 106.407 50.5269 106.465 50.6088 106.491C50.6907 106.516 50.7856 106.516 50.8937 106.491L51.3481 106.348C51.5227 106.309 51.6425 106.352 51.7075 106.476C51.7421 106.542 51.7455 106.609 51.7176 106.676C51.6938 106.741 51.6302 106.801 51.5269 106.855L48.7803 108.295C48.6769 108.349 48.5896 108.368 48.5184 108.353C48.4512 108.335 48.4003 108.293 48.3657 108.227C48.3007 108.103 48.3338 107.981 48.4651 107.859L48.8415 107.567C48.9277 107.49 48.9815 107.412 49.003 107.332C49.0285 107.25 49.0175 107.164 48.9698 107.073L45.3433 100.154C45.2956 100.063 45.2308 100.005 45.1489 99.979C45.0712 99.9513 44.9762 99.951 44.864 99.9782L44.4096 100.122C44.235 100.16 44.1152 100.118 44.0502 99.9937C44.0134 99.9235 44.0079 99.8578 44.0339 99.7968C44.0618 99.7295 44.1275 99.6687 44.2308 99.6146L46.9774 98.175C47.0807 98.1208 47.166 98.1025 47.2331 98.12C47.3022 98.1312 47.3552 98.1719 47.392 98.2422C47.457 98.3662 47.4239 98.4889 47.2926 98.6104L46.9162 98.9026C46.8341 98.9772 46.7803 99.0554 46.7547 99.1373C46.7291 99.2192 46.7402 99.3057 46.7879 99.3966L50.4144 106.316ZM52.8494 101.76L56.5446 99.8229L56.8642 100.327L53.0698 102.316L52.8494 101.76ZM55.1314 104.681C55.1661 104.747 55.1695 104.814 55.1415 104.881C55.1177 104.947 55.0521 105.007 54.9446 105.064L53.0226 106.071C52.9152 106.127 52.8269 106.15 52.7578 106.139C52.6865 106.123 52.6335 106.083 52.5989 106.016C52.5707 105.963 52.5624 105.912 52.574 105.864C52.5898 105.813 52.6313 105.747 52.6986 105.664L52.8982 105.457C52.9879 105.346 53.041 105.232 53.0575 105.112C53.0719 104.989 53.0546 104.795 53.0057 104.531L51.7728 96.8708C51.7444 96.696 51.6984 96.5831 51.6348 96.5321C51.5712 96.4812 51.4573 96.475 51.2931 96.5136C51.1664 96.5432 51.0694 96.5492 51.0023 96.5317C50.9352 96.5142 50.8864 96.4765 50.8561 96.4187C50.8193 96.3484 50.8159 96.2817 50.846 96.2185C50.8802 96.1531 50.949 96.0933 51.0524 96.0392L53.613 94.6971C53.7204 94.6408 53.8087 94.6182 53.8778 94.6294C53.9469 94.6406 53.9988 94.6793 54.0334 94.7454C54.0659 94.8074 54.0703 94.871 54.0465 94.9361C54.0268 94.9991 53.9698 95.0712 53.8753 95.1523C53.7706 95.2441 53.7209 95.3202 53.7262 95.3806C53.7316 95.441 53.7842 95.5214 53.8843 95.6218L59.7493 101.218C59.894 101.363 60.0273 101.457 60.1492 101.498C60.271 101.54 60.413 101.539 60.575 101.496C60.708 101.469 60.804 101.466 60.8628 101.488C60.9195 101.505 60.9641 101.545 60.9966 101.607C61.0313 101.673 61.0326 101.741 61.0005 101.811C60.9726 101.878 60.9049 101.94 60.7974 101.996L58.336 103.286C58.2327 103.34 58.1433 103.361 58.0679 103.348C57.9967 103.332 57.9437 103.292 57.909 103.225C57.8787 103.168 57.8724 103.11 57.8901 103.054C57.9078 102.997 57.9546 102.935 58.0306 102.869L58.4289 102.574C58.5192 102.495 58.5491 102.421 58.5186 102.353C58.4859 102.28 58.4057 102.183 58.2781 102.06L52.1697 96.1806L52.304 95.9996L53.6272 104.118C53.6618 104.295 53.7041 104.431 53.7539 104.526C53.8038 104.621 53.8739 104.684 53.9642 104.716C54.0565 104.741 54.1776 104.741 54.3274 104.715L54.7789 104.581C54.8723 104.559 54.9474 104.556 55.0041 104.574C55.0587 104.588 55.1011 104.623 55.1314 104.681ZM61.9256 101.12C61.8606 100.996 61.8958 100.872 62.0312 100.749L62.4014 100.46C62.4876 100.383 62.5435 100.304 62.569 100.222C62.5946 100.14 62.5836 100.053 62.5359 99.9625L58.9093 93.0433C58.8617 92.9524 58.7969 92.8942 58.715 92.8686C58.6331 92.843 58.5361 92.8438 58.4239 92.871L57.9757 93.0111C57.7969 93.0521 57.6751 93.0106 57.6101 92.8866C57.5733 92.8163 57.5699 92.7496 57.6 92.6864C57.6279 92.6191 57.6936 92.5583 57.7969 92.5041L60.8101 90.9248C61.583 90.5197 62.3432 90.2662 63.0906 90.1642C63.84 90.056 64.5493 90.0873 65.2184 90.2582C65.8876 90.4291 66.4903 90.7296 67.0266 91.1598C67.563 91.59 68.0066 92.1399 68.3576 92.8095C68.7713 93.5989 68.9578 94.3969 68.9168 95.2034C68.88 96.0078 68.6138 96.7664 68.1181 97.4793C67.6224 98.1922 66.8889 98.8033 65.9176 99.3124L62.3464 101.184C62.243 101.238 62.1557 101.258 62.0845 101.242C62.0132 101.227 61.9602 101.186 61.9256 101.12ZM65.5584 98.8684C66.2156 98.5239 66.7072 98.0897 67.0333 97.5658C67.3613 97.0356 67.5126 96.4347 67.4872 95.763C67.4638 95.0851 67.2452 94.3514 66.8315 93.5619C66.5087 92.946 66.1284 92.4367 65.6907 92.0338C65.255 91.6247 64.7776 91.3322 64.2587 91.1563C63.7417 90.9742 63.1999 90.9105 62.6331 90.9651C62.0664 91.0198 61.4917 91.1999 60.9089 91.5053L60.1525 91.9018L63.9123 99.0752C64.0054 99.2529 64.1274 99.3549 64.2782 99.3813C64.429 99.4076 64.616 99.3623 64.8392 99.2453L65.5584 98.8684ZM73.6556 94.1344C73.7033 94.2253 73.7681 94.2835 73.8499 94.3091C73.9318 94.3347 74.0289 94.3339 74.1411 94.3067L74.5893 94.1666C74.768 94.1256 74.8899 94.1671 74.9549 94.2911C74.9895 94.3572 74.9929 94.424 74.965 94.4913C74.9412 94.5565 74.8755 94.6172 74.7681 94.6735L72.0277 96.1099C71.9243 96.164 71.837 96.1834 71.7658 96.1681C71.6945 96.1528 71.6415 96.112 71.6069 96.0459C71.5419 95.9219 71.5771 95.7981 71.7125 95.6744L72.0827 95.3855C72.1689 95.3087 72.2248 95.2294 72.2503 95.1475C72.2759 95.0656 72.2649 94.9792 72.2172 94.8883L68.5906 87.9691C68.543 87.8781 68.4782 87.8199 68.3963 87.7943C68.3144 87.7687 68.2174 87.7695 68.1052 87.7967L67.657 87.9368C67.4782 87.9778 67.3564 87.9363 67.2914 87.8123C67.2546 87.742 67.2512 87.6753 67.2813 87.6121C67.3092 87.5448 67.3749 87.484 67.4782 87.4299L70.2186 85.9935C70.3261 85.9372 70.4134 85.9178 70.4805 85.9353C70.5496 85.9465 70.6026 85.9872 70.6394 86.0575C70.7044 86.1815 70.6692 86.3053 70.5338 86.429L70.1636 86.7179C70.0774 86.7947 70.0215 86.874 69.9959 86.9559C69.9703 87.0378 69.9814 87.1242 70.029 87.2152L73.6556 94.1344ZM78.8724 88.1202L82.5676 86.1834L82.8873 86.6877L79.0929 88.6765L78.8724 88.1202ZM81.1545 91.0417C81.1891 91.1078 81.1925 91.1746 81.1646 91.2419C81.1408 91.3071 81.0751 91.3678 80.9677 91.4241L79.0457 92.4315C78.9382 92.4878 78.8499 92.5104 78.7808 92.4992C78.7096 92.4839 78.6566 92.4431 78.6219 92.377C78.5938 92.3233 78.5855 92.2723 78.5971 92.224C78.6128 92.1736 78.6543 92.1071 78.7216 92.0244L78.9212 91.8171C79.0109 91.7068 79.0641 91.592 79.0806 91.4727C79.0949 91.3493 79.0776 91.1555 79.0287 90.8913L77.7958 83.2313C77.7674 83.0565 77.7214 82.9436 77.6578 82.8926C77.5942 82.8417 77.4803 82.8355 77.3162 82.8741C77.1894 82.9037 77.0925 82.9097 77.0253 82.8922C76.9582 82.8747 76.9095 82.837 76.8791 82.7792C76.8423 82.7089 76.839 82.6422 76.8691 82.579C76.9033 82.5136 76.9721 82.4538 77.0754 82.3997L79.636 81.0576C79.7435 81.0013 79.8318 80.9787 79.9009 80.9899C79.97 81.0011 80.0218 81.0398 80.0565 81.1059C80.089 81.1679 80.0933 81.2315 80.0695 81.2966C80.0499 81.3596 79.9928 81.4317 79.8983 81.5128C79.7936 81.6046 79.7439 81.6807 79.7493 81.7411C79.7546 81.8015 79.8073 81.8819 79.9073 81.9823L85.7723 87.5781C85.9171 87.7235 86.0503 87.817 86.1722 87.8585C86.2941 87.9 86.436 87.8994 86.598 87.8566C86.7311 87.8291 86.827 87.8262 86.8859 87.848C86.9426 87.8657 86.9872 87.9056 87.0197 87.9676C87.0543 88.0337 87.0556 88.1015 87.0236 88.171C86.9956 88.2383 86.9279 88.3002 86.8205 88.3565L84.3591 89.6466C84.2557 89.7007 84.1664 89.7212 84.091 89.7081C84.0197 89.6927 83.9667 89.652 83.9321 89.5859C83.9018 89.528 83.8954 89.4707 83.9131 89.414C83.9308 89.3573 83.9777 89.2959 84.0536 89.2297L84.4519 88.9341C84.5422 88.8551 84.5721 88.7815 84.5416 88.7132C84.5089 88.6407 84.4288 88.5431 84.3012 88.4203L78.1928 82.5411L78.3271 82.3601L79.6502 90.4787C79.6849 90.6555 79.7271 90.7914 79.777 90.8864C79.8268 90.9815 79.8969 91.0449 79.9873 91.0765C80.0796 91.1019 80.2007 91.1017 80.3505 91.0759L80.8019 90.942C80.8954 90.9193 80.9705 90.9168 81.0272 90.9345C81.0817 90.9481 81.1242 90.9838 81.1545 91.0417ZM94.3452 81.7412C94.668 82.3571 94.6657 83.0011 94.3383 83.6732C94.0129 84.3391 93.3335 84.9428 92.3002 85.4844L88.3632 87.5479C88.2599 87.6021 88.1726 87.6215 88.1013 87.6061C88.0342 87.5886 87.9833 87.5468 87.9486 87.4807C87.8836 87.3567 87.9168 87.2339 88.048 87.1124L88.4244 86.8203C88.5106 86.7435 88.5645 86.6653 88.5859 86.5855C88.6093 86.4995 88.5983 86.4131 88.5528 86.3263L84.9262 79.4071C84.8785 79.3162 84.8137 79.2579 84.7319 79.2323C84.6541 79.2046 84.5591 79.2043 84.4469 79.2315L83.9925 79.3748C83.8179 79.4137 83.6981 79.3711 83.6331 79.2471C83.5963 79.1768 83.5909 79.1112 83.6168 79.0501C83.6448 78.9828 83.7104 78.9221 83.8137 78.8679L86.8827 77.2593C87.6309 76.8672 88.3206 76.6401 88.9519 76.5779C89.5851 76.5094 90.1356 76.5897 90.6034 76.8187C91.0732 77.0414 91.4369 77.3987 91.6947 77.8906C91.9114 78.3039 91.9927 78.7355 91.9387 79.1853C91.8825 79.631 91.68 80.0691 91.3313 80.4995C90.9867 80.9277 90.4776 81.3184 89.8039 81.6715L90.0943 81.3059C90.7391 80.9679 91.3448 80.7664 91.9113 80.7013C92.4757 80.6321 92.9683 80.6873 93.3892 80.8672C93.8142 81.0448 94.1329 81.3362 94.3452 81.7412ZM89.718 81.9299L88.0254 82.817L87.8077 82.4017L89.4135 81.56C89.8144 81.3499 90.1164 81.0967 90.3195 80.8006C90.5226 80.5045 90.6248 80.1769 90.6263 79.8179C90.6278 79.4588 90.5256 79.0829 90.3198 78.6903C90.1032 78.2769 89.8248 77.9618 89.4846 77.745C89.1443 77.5282 88.7572 77.4228 88.3231 77.4291C87.8869 77.4311 87.4187 77.5632 86.9186 77.8254L86.1498 78.2283L89.9324 85.4451C90.0277 85.627 90.1591 85.732 90.3266 85.7601C90.4942 85.7882 90.6999 85.7383 90.9437 85.6105L91.7683 85.1783C92.2023 84.9508 92.5272 84.691 92.7428 84.3988C92.9585 84.1067 93.0726 83.7966 93.0851 83.4686C93.1018 83.1385 93.0245 82.8102 92.8534 82.4836C92.5826 81.967 92.1768 81.6501 91.636 81.5332C91.0931 81.412 90.4537 81.5443 89.718 81.9299ZM102.749 77.3365C103.072 77.9523 103.07 78.5963 102.742 79.2685C102.417 79.9343 101.737 80.538 100.704 81.0796L96.7671 83.1431C96.6638 83.1973 96.5765 83.2167 96.5052 83.2014C96.4381 83.1839 96.3872 83.1421 96.3525 83.0759C96.2875 82.9519 96.3207 82.8292 96.4519 82.7077L96.8283 82.4156C96.9145 82.3388 96.9684 82.2605 96.9898 82.1808C97.0132 82.0947 97.0022 82.0083 96.9567 81.9215L93.3301 75.0023C93.2824 74.9114 93.2177 74.8531 93.1358 74.8276C93.058 74.7998 92.963 74.7996 92.8508 74.8268L92.3964 74.9701C92.2218 75.0089 92.102 74.9663 92.037 74.8423C92.0002 74.7721 91.9948 74.7064 92.0207 74.6454C92.0487 74.578 92.1143 74.5173 92.2176 74.4631L95.2866 72.8546C96.0348 72.4625 96.7245 72.2353 97.3558 72.1732C97.989 72.1047 98.5395 72.185 99.0073 72.414C99.4771 72.6367 99.8408 72.994 100.099 73.4859C100.315 73.8992 100.397 74.3308 100.343 74.7806C100.286 75.2263 100.084 75.6643 99.7352 76.0947C99.3906 76.523 98.8815 76.9136 98.2078 77.2668L98.4982 76.9011C99.143 76.5632 99.7487 76.3616 100.315 76.2965C100.88 76.2273 101.372 76.2826 101.793 76.4624C102.218 76.6401 102.537 76.9314 102.749 77.3365ZM98.1219 77.5252L96.4293 78.4123L96.2116 77.9969L97.8174 77.1552C98.2183 76.9451 98.5203 76.692 98.7234 76.3959C98.9265 76.0997 99.0287 75.7722 99.0302 75.4131C99.0317 75.054 98.9296 74.6782 98.7237 74.2855C98.5071 73.8722 98.2287 73.5571 97.8885 73.3402C97.5482 73.1234 97.1611 73.0181 96.7271 73.0243C96.2908 73.0264 95.8227 73.1585 95.3225 73.4206L94.5537 73.8236L98.3363 81.0404C98.4316 81.2222 98.563 81.3272 98.7305 81.3553C98.8981 81.3834 99.1038 81.3336 99.3476 81.2058L100.172 80.7736C100.606 80.5461 100.931 80.2863 101.147 79.9941C101.362 79.7019 101.477 79.3918 101.489 79.0639C101.506 78.7338 101.428 78.4054 101.257 78.0789C100.986 77.5622 100.581 77.2454 100.04 77.1284C99.497 77.0073 98.8576 77.1395 98.1219 77.5252ZM104.508 74.6838L108.203 72.747L108.523 73.2513L104.728 75.2401L104.508 74.6838ZM106.79 77.6053C106.825 77.6714 106.828 77.7382 106.8 77.8055C106.776 77.8707 106.711 77.9314 106.603 77.9877L104.681 78.9951C104.574 79.0514 104.485 79.074 104.416 79.0628C104.345 79.0475 104.292 79.0067 104.257 78.9406C104.229 78.8869 104.221 78.8359 104.233 78.7876C104.248 78.7372 104.29 78.6707 104.357 78.588L104.557 78.3807C104.646 78.2704 104.7 78.1556 104.716 78.0363C104.73 77.9129 104.713 77.7191 104.664 77.4549L103.431 69.7949C103.403 69.6201 103.357 69.5072 103.293 69.4562C103.23 69.4053 103.116 69.3991 102.952 69.4377C102.825 69.4673 102.728 69.4733 102.661 69.4558C102.594 69.4383 102.545 69.4006 102.515 69.3428C102.478 69.2725 102.474 69.2058 102.505 69.1426C102.539 69.0772 102.608 69.0174 102.711 68.9633L105.272 67.6212C105.379 67.5649 105.467 67.5423 105.536 67.5535C105.605 67.5647 105.657 67.6034 105.692 67.6695C105.725 67.7315 105.729 67.7951 105.705 67.8602C105.685 67.9232 105.628 67.9953 105.534 68.0764C105.429 68.1682 105.379 68.2443 105.385 68.3047C105.39 68.3651 105.443 68.4455 105.543 68.5459L111.408 74.1417C111.553 74.2871 111.686 74.3806 111.808 74.4221C111.93 74.4636 112.072 74.463 112.234 74.4202C112.367 74.3927 112.463 74.3898 112.521 74.4116C112.578 74.4293 112.623 74.4692 112.655 74.5312C112.69 74.5973 112.691 74.6651 112.659 74.7346C112.631 74.8019 112.563 74.8638 112.456 74.9201L109.995 76.2102C109.891 76.2643 109.802 76.2848 109.727 76.2717C109.655 76.2563 109.602 76.2156 109.568 76.1495C109.537 76.0916 109.531 76.0343 109.549 75.9776C109.566 75.9209 109.613 75.8595 109.689 75.7933L110.087 75.4977C110.178 75.4187 110.208 75.3451 110.177 75.2768C110.144 75.2043 110.064 75.1067 109.937 74.9839L103.828 69.1047L103.963 68.9237L105.286 77.0423C105.32 77.2191 105.363 77.355 105.413 77.45C105.462 77.5451 105.532 77.6085 105.623 77.6401C105.715 77.6655 105.836 77.6653 105.986 77.6395L106.437 77.5056C106.531 77.4829 106.606 77.4804 106.663 77.4981C106.717 77.5117 106.76 77.5474 106.79 77.6053ZM117.032 72.7747C116.664 72.9675 116.326 73.0867 116.018 73.1322C115.71 73.1778 115.449 73.1984 115.236 73.1942C115.027 73.1877 114.89 73.2018 114.824 73.2365C114.754 73.2733 114.713 73.3315 114.702 73.411C114.693 73.4843 114.689 73.5678 114.691 73.6617C114.695 73.7493 114.69 73.8308 114.677 73.9062C114.664 73.9816 114.622 74.0377 114.552 74.0746C114.481 74.1114 114.413 74.121 114.346 74.1035C114.283 74.0839 114.218 74.0308 114.152 73.9444L112.663 72.2195C112.605 72.1496 112.577 72.0803 112.577 72.0114C112.582 71.9403 112.615 71.8729 112.677 71.8091C112.74 71.739 112.809 71.7053 112.885 71.708C112.962 71.7045 113.044 71.7353 113.131 71.8004C113.59 72.1339 114.028 72.3656 114.443 72.4954C114.861 72.619 115.257 72.6615 115.632 72.623C116.009 72.5782 116.359 72.4713 116.681 72.3024C117.144 72.0597 117.441 71.7462 117.571 71.3617C117.7 70.9731 117.66 70.5751 117.452 70.1679C117.319 69.9158 117.139 69.7126 116.911 69.5583C116.68 69.3999 116.352 69.306 115.925 69.2765C115.501 69.2408 114.926 69.279 114.199 69.391C113.469 69.5051 112.846 69.5285 112.331 69.4611C111.821 69.3916 111.391 69.2297 111.041 68.9754C110.696 68.719 110.408 68.3697 110.176 67.9274C109.922 67.4438 109.814 66.9606 109.851 66.4777C109.887 65.9948 110.056 65.548 110.357 65.1373C110.66 64.7203 111.081 64.3709 111.618 64.0893C112.011 63.8835 112.354 63.759 112.647 63.7158C112.939 63.6685 113.181 63.6493 113.376 63.6581C113.57 63.6669 113.715 63.6464 113.81 63.5965C113.901 63.5489 113.938 63.4741 113.921 63.3721C113.909 63.268 113.899 63.1627 113.89 63.0565C113.884 62.9439 113.932 62.8605 114.036 62.8063C114.106 62.7695 114.176 62.7619 114.245 62.7835C114.314 62.8052 114.399 62.8662 114.499 62.9665L116.16 64.6725C116.23 64.7463 116.267 64.827 116.271 64.9146C116.277 64.9959 116.25 65.0705 116.191 65.1385C116.125 65.2044 116.054 65.2392 115.977 65.2427C115.901 65.24 115.819 65.2092 115.731 65.1504C115.225 64.7781 114.75 64.521 114.307 64.3792C113.866 64.2311 113.454 64.1753 113.073 64.2118C112.692 64.2483 112.334 64.3543 111.999 64.5298C111.528 64.7767 111.221 65.1114 111.079 65.5337C110.941 65.9538 110.988 66.385 111.219 66.8272C111.356 67.0876 111.544 67.3001 111.783 67.4646C112.02 67.625 112.35 67.7282 112.775 67.7744C113.2 67.8205 113.761 67.8004 114.458 67.714C115.222 67.6138 115.862 67.5974 116.377 67.6648C116.889 67.7281 117.311 67.8786 117.641 68.1166C117.971 68.3545 118.243 68.678 118.458 69.0872C118.675 69.511 118.772 69.9527 118.749 70.4124C118.729 70.8657 118.577 71.3007 118.295 71.7173C118.015 72.1276 117.594 72.4801 117.032 72.7747Z" fill="#1F3D2B"/>
<defs>
<filter id="filter0_d_731_440" x="3.21301" y="8.03027" width="77.6733" height="157.519" filterUnits="userSpaceOnUse" color-interpolation-filters="sRGB">
<feFlood flood-opacity="0" result="BackgroundImageFix"/>
<feColorMatrix in="SourceAlpha" type="matrix" values="0 0 0 0 0 0 0 0 0 0 0 0 0 0 0 0 0 0 127 0" result="hardAlpha"/>
<feOffset dy="5"/>
<feGaussianBlur stdDeviation="2"/>
<feComposite in2="hardAlpha" operator="out"/>
<feColorMatrix type="matrix" values="0 0 0 0 0 0 0 0 0 0 0 0 0 0 0 0 0 0 0.53 0"/>
<feBlend mode="normal" in2="BackgroundImageFix" result="effect1_dropShadow_731_440"/>
<feBlend mode="normal" in="SourceGraphic" in2="effect1_dropShadow_731_440" result="shape"/>
</filter>
<filter id="filter1_d_731_440" x="79.9106" y="5.92773" width="77.8025" height="163.461" filterUnits="userSpaceOnUse" color-interpolation-filters="sRGB">
<feFlood flood-opacity="0" result="BackgroundImageFix"/>
<feColorMatrix in="SourceAlpha" type="matrix" values="0 0 0 0 0 0 0 0 0 0 0 0 0 0 0 0 0 0 127 0" result="hardAlpha"/>
<feOffset dy="5"/>
<feGaussianBlur stdDeviation="2"/>
<feComposite in2="hardAlpha" operator="out"/>
<feColorMatrix type="matrix" values="0 0 0 0 0 0 0 0 0 0 0 0 0 0 0 0 0 0 0.53 0"/>
<feBlend mode="normal" in2="BackgroundImageFix" result="effect1_dropShadow_731_440"/>
<feBlend mode="normal" in="SourceGraphic" in2="effect1_dropShadow_731_440" result="shape"/>
</filter>
</defs>
</svg>
