<svg width="50" height="50" viewBox="0 0 50 50" fill="none" xmlns="http://www.w3.org/2000/svg">
<g clip-path="url(#clip0_743_479)">
<g filter="url(#filter0_d_743_479)">
<path d="M15.6049 8.37504C15.5585 7.64759 15.9114 6.95309 16.526 6.56235L20.529 4.01724C21.8971 3.14739 23.6793 4.18443 23.6012 5.80493L23.2261 13.5925L23.2261 20.2037C23.2261 21.9067 21.2339 22.8276 19.9343 21.7254L19.2501 21.1453L16.7822 18.7357C16.4276 18.3895 16.2138 17.9241 16.1823 17.4298L15.6049 8.37504Z" fill="#1F3D2B"/>
<path d="M23.5264 29.0973C23.5264 27.4902 21.7267 26.5394 20.3992 27.4452L17.1991 29.6286C16.6032 30.0352 16.2725 30.7312 16.3335 31.45L17.4154 44.1832C17.4702 44.8286 17.8342 45.4074 18.392 45.7365L20.5101 46.9861C21.8434 47.7726 23.5264 46.8115 23.5264 45.2635V29.0973Z" fill="#1F3D2B"/>
<path d="M4.88104 24.1202C3.82939 23.5619 3.48368 22.2079 4.13956 21.2162L5.81902 18.6767C6.37838 17.8309 7.47925 17.5476 8.37914 18.0179L22.5248 25.4105C23.2255 25.7767 23.65 26.5241 23.6078 27.3174L23.4244 30.7681C23.3469 32.2256 21.8057 33.1051 20.5228 32.424L4.88104 24.1202Z" fill="#1F3D2B"/>
<path d="M2.56287 12.4248C2.56287 11.66 2.99897 10.9622 3.68637 10.6271L8.3833 8.33704C9.71184 7.68929 11.2598 8.65671 11.2598 10.1347V43.5316C11.2598 45.1186 9.50022 46.0734 8.16972 45.2084L3.4728 42.1551C2.90526 41.7861 2.56287 41.1552 2.56287 40.4782V12.4248Z" fill="#1F3D2B"/>
</g>
<g filter="url(#filter1_d_743_479)">
<path d="M34.0566 9.30082C34.103 8.57337 33.7501 7.87888 33.1355 7.48813L29.1325 4.94302C27.7644 4.07317 25.9822 5.11021 26.0603 6.73072L26.4354 14.5183L26.4354 20.9972C26.4354 22.7217 28.4714 23.6348 29.7618 22.4889L30.0586 22.2254L32.8383 19.6682C33.2182 19.3187 33.4486 18.8361 33.4814 18.3213L34.0566 9.30082Z" fill="#1F3D2B"/>
<path d="M28.6523 2.58223C27.3041 2.09317 25.9099 3.14939 26.0041 4.58844L26.1436 6.71909C26.192 7.45853 26.6398 8.11426 27.3087 8.42524L36.409 12.6562L44.0975 16.5473C45.3784 17.1956 46.8893 16.3178 46.9679 14.8797L47.0725 12.9676L47.0725 10.6869C47.0726 9.83468 46.5393 9.07103 45.7422 8.78188L28.6523 2.58223Z" fill="#1F3D2B"/>
<path d="M26.2607 30.5278C26.2607 28.883 28.1355 27.9414 29.4549 28.9234L32.0593 30.8619C32.6104 31.2721 32.9124 31.9365 32.8591 32.6215L31.8594 45.4569C31.8108 46.0802 31.4736 46.645 30.9478 46.9834L29.3431 48.0161C28.0122 48.8727 26.2607 47.9171 26.2607 46.3343V30.5278Z" fill="#1F3D2B"/>
<path d="M44.7517 25.356C45.8043 24.7972 46.1495 23.4415 45.4916 22.4497L43.8567 19.9849C43.2968 19.1407 42.197 18.8585 41.298 19.3284L27.1448 26.7263C26.4472 27.091 26.0232 27.8337 26.0615 28.6238L26.2246 31.9856C26.2955 33.4475 27.8402 34.3338 29.1267 33.6508L44.7517 25.356Z" fill="#1F3D2B"/>
<path d="M47.0725 13.6601C47.0725 12.8954 46.6364 12.1976 45.949 11.8624L41.2521 9.57239C39.9235 8.92464 38.3756 9.89206 38.3756 11.3701V44.767C38.3756 46.3539 40.1352 47.3087 41.4657 46.4438L46.1626 43.3904C46.7301 43.0215 47.0725 42.3905 47.0725 41.7136V13.6601Z" fill="#1F3D2B"/>
</g>
</g>
<defs>
<filter id="filter0_d_743_479" x="-1.43713" y="3.70215" width="29.0479" height="52.5645" filterUnits="userSpaceOnUse" color-interpolation-filters="sRGB">
<feFlood flood-opacity="0" result="BackgroundImageFix"/>
<feColorMatrix in="SourceAlpha" type="matrix" values="0 0 0 0 0 0 0 0 0 0 0 0 0 0 0 0 0 0 127 0" result="hardAlpha"/>
<feOffset dy="5"/>
<feGaussianBlur stdDeviation="2"/>
<feComposite in2="hardAlpha" operator="out"/>
<feColorMatrix type="matrix" values="0 0 0 0 0 0 0 0 0 0 0 0 0 0 0 0 0 0 0.53 0"/>
<feBlend mode="normal" in2="BackgroundImageFix" result="effect1_dropShadow_743_479"/>
<feBlend mode="normal" in="SourceGraphic" in2="effect1_dropShadow_743_479" result="shape"/>
</filter>
<filter id="filter1_d_743_479" x="21.9996" y="2.46094" width="29.0729" height="54.877" filterUnits="userSpaceOnUse" color-interpolation-filters="sRGB">
<feFlood flood-opacity="0" result="BackgroundImageFix"/>
<feColorMatrix in="SourceAlpha" type="matrix" values="0 0 0 0 0 0 0 0 0 0 0 0 0 0 0 0 0 0 127 0" result="hardAlpha"/>
<feOffset dy="5"/>
<feGaussianBlur stdDeviation="2"/>
<feComposite in2="hardAlpha" operator="out"/>
<feColorMatrix type="matrix" values="0 0 0 0 0 0 0 0 0 0 0 0 0 0 0 0 0 0 0.53 0"/>
<feBlend mode="normal" in2="BackgroundImageFix" result="effect1_dropShadow_743_479"/>
<feBlend mode="normal" in="SourceGraphic" in2="effect1_dropShadow_743_479" result="shape"/>
</filter>
<clipPath id="clip0_743_479">
<rect width="50" height="50" fill="white"/>
</clipPath>
</defs>
</svg>
