<svg width="96" height="97" viewBox="0 0 96 97" fill="none" xmlns="http://www.w3.org/2000/svg">
<g filter="url(#filter0_d_739_447)">
<path d="M29.7878 14.7451C29.7403 14.0114 30.0992 13.3107 30.7225 12.9206L42.2625 5.69722C43.632 4.83997 45.4002 5.87646 45.3212 7.49024L44.435 25.6022L44.435 41.9031C44.435 43.5996 42.4556 44.5257 41.1533 43.4384L36.8284 39.8276L31.6124 34.8141C31.2524 34.468 31.0348 33.9998 31.0026 33.5014L29.7878 14.7451Z" fill="#1F3D2B"/>
<path d="M45.0096 51.4276C45.0096 49.827 43.2231 48.8749 41.8944 49.7673L32.0383 56.3879C31.4344 56.7936 31.0984 57.4952 31.1609 58.2201L33.3963 84.1214C33.4523 84.7705 33.821 85.3517 34.3844 85.6789L42.0052 90.1051C43.3385 90.8795 45.0096 89.9176 45.0096 88.3757V51.4276Z" fill="#1F3D2B"/>
<path d="M7.54763 44.4932C6.49171 43.9414 6.14946 42.5945 6.81383 41.6055L12.0176 33.8589C12.5835 33.0165 13.6905 32.7315 14.5928 33.1957L44.1462 48.4009C44.847 48.7615 45.2707 49.5001 45.2282 50.2872L44.666 60.7002C44.5875 62.1535 43.0324 63.039 41.7425 62.3649L7.54763 44.4932Z" fill="#1F3D2B"/>
<path d="M4.9032 22.3065C4.9032 21.5373 5.34431 20.8363 6.03774 20.5035L18.6763 14.4369C20.004 13.7997 21.5418 14.7673 21.5418 16.24V85.2789C21.5418 86.8594 19.7949 87.8154 18.4637 86.9634L5.82509 78.8748C5.25069 78.5071 4.9032 77.8722 4.9032 77.1902V22.3065Z" fill="#1F3D2B"/>
</g>
<g filter="url(#filter1_d_739_447)">
<path d="M65.2222 16.4893C65.2697 15.7555 64.9108 15.0549 64.2875 14.6647L52.7475 7.44136C51.378 6.58411 49.6098 7.6206 49.6888 9.23438L50.575 27.3463L50.575 43.5174C50.575 45.2353 52.598 46.1538 53.8914 45.0231L57.5067 41.8624L63.3564 36.5644C63.7418 36.2154 63.9761 35.7301 64.0097 35.2113L65.2222 16.4893Z" fill="#1F3D2B"/>
<path d="M52.2397 3.94346C50.8839 3.45923 49.476 4.52308 49.5715 5.95963L50.088 13.7278C50.1367 14.4607 50.5833 15.108 51.2512 15.4137L69.656 23.8378L86.8189 32.3891C88.1054 33.0302 89.628 32.1452 89.7077 30.71L90.057 24.4243L90.057 18.859C90.057 18.0138 89.5257 17.2598 88.7297 16.9755L52.2397 3.94346Z" fill="#1F3D2B"/>
<path d="M50.241 53.9441C50.241 52.3062 52.102 51.3627 53.4231 52.3308L62.129 58.7104C62.6882 59.1201 62.9953 59.7902 62.9406 60.4813L60.8835 86.4845C60.8338 87.1119 60.4918 87.6794 59.9601 88.0162L53.3114 92.2289C51.9798 93.0726 50.241 92.1159 50.241 90.5395V53.9441Z" fill="#1F3D2B"/>
<path d="M87.4099 46.8199C88.4667 46.2675 88.8085 44.9188 88.1421 43.9298L83.0191 36.326C82.4527 35.4852 81.3468 35.2013 80.4453 35.6651L50.8852 50.8768C50.1874 51.2359 49.7641 51.9698 49.8027 52.7536L50.3081 63.0085C50.3799 64.4663 51.9385 65.3586 53.232 64.6826L87.4099 46.8199Z" fill="#1F3D2B"/>
<path d="M90.057 24.6317C90.057 23.8625 89.6159 23.1615 88.9225 22.8287L76.2839 16.7621C74.9562 16.1249 73.4184 17.0925 73.4184 18.5652V87.6041C73.4184 89.1846 75.1653 90.1406 76.4965 89.2886L89.1351 81.2C89.7095 80.8323 90.057 80.1974 90.057 79.5154V24.6317Z" fill="#1F3D2B"/>
</g>
<path d="M90.2106 22L90.2107 32.5003L79.5623 37.1791L5.21066 77.5003L5.14864 66.0003L22.6107 55.8459L44.0328 44.881L78.6729 27.8299L90.2106 22Z" fill="#FFE6A3"/>
<path d="M23.3218 61.9007L27.2101 59.8627L27.4074 60.2391L23.5191 62.2771L23.3218 61.9007ZM25.2286 64.0739C25.2627 64.1388 25.3097 64.1819 25.3697 64.2031C25.4282 64.2214 25.4968 64.2193 25.5754 64.197L25.8978 64.1013C26.0255 64.072 26.1126 64.1017 26.159 64.1903C26.1853 64.2405 26.1885 64.2896 26.1685 64.3377C26.1486 64.3858 26.1017 64.4292 26.0279 64.4679L24.066 65.4961C23.9922 65.5348 23.9298 65.5487 23.8789 65.5377C23.828 65.5268 23.7894 65.4962 23.7631 65.446C23.7167 65.3574 23.7418 65.269 23.8386 65.1807L24.1007 64.9699C24.1638 64.918 24.2045 64.8628 24.2227 64.8043C24.2395 64.7429 24.2308 64.6796 24.1968 64.6147L21.6156 59.6901C21.5816 59.6252 21.5353 59.5836 21.4768 59.5653C21.4168 59.5441 21.3475 59.5447 21.2689 59.567L20.9464 59.6627C20.8187 59.6919 20.7317 59.6623 20.6853 59.5737C20.6574 59.5206 20.6542 59.4714 20.6757 59.4263C20.6957 59.3782 20.7426 59.3348 20.8164 59.2961L22.7782 58.2679C22.8521 58.2292 22.9144 58.2153 22.9653 58.2263C23.0147 58.2343 23.0533 58.2648 23.0811 58.318C23.1275 58.4066 23.1024 58.495 23.0057 58.5833L22.7436 58.7941C22.6805 58.846 22.6405 58.9027 22.6238 58.9641C22.6056 59.0226 22.6134 59.0843 22.6475 59.1493L25.2286 64.0739ZM29.1922 61.9964C29.2262 62.0614 29.2733 62.1045 29.3333 62.1257C29.3918 62.144 29.4604 62.1419 29.539 62.1195L29.8614 62.0239C29.9891 61.9946 30.0761 62.0243 30.1225 62.1128C30.1489 62.163 30.152 62.2122 30.1321 62.2603C30.1121 62.3084 30.0652 62.3517 29.9914 62.3904L28.0296 63.4187C27.9558 63.4574 27.8934 63.4713 27.8425 63.4603C27.7916 63.4493 27.753 63.4188 27.7267 63.3686C27.6803 63.28 27.7054 63.1916 27.8021 63.1032L28.0642 62.8925C28.1274 62.8406 28.1681 62.7854 28.1863 62.7269C28.203 62.6654 28.1944 62.6022 28.1603 62.5373L25.5792 57.6127C25.5452 57.5477 25.4989 57.5061 25.4404 57.4879C25.3803 57.4667 25.311 57.4672 25.2324 57.4896L24.91 57.5852C24.7823 57.6145 24.6953 57.5849 24.6488 57.4963C24.621 57.4431 24.6178 57.394 24.6393 57.3489C24.6593 57.3008 24.7061 57.2574 24.78 57.2187L26.7418 56.1904C26.8156 56.1517 26.878 56.1379 26.9289 56.1488C26.9782 56.1568 27.0168 56.1874 27.0447 56.2405C27.0911 56.3291 27.066 56.4176 26.9693 56.5059L26.7071 56.7167C26.644 56.7686 26.6041 56.8252 26.5874 56.8867C26.5691 56.9452 26.577 57.0069 26.6111 57.0719L29.1922 61.9964ZM30.949 58.7442L33.5928 57.3585L33.8234 57.7231L31.1043 59.1483L30.949 58.7442ZM32.5811 60.8242C32.6074 60.8744 32.6106 60.9236 32.5906 60.9717C32.5707 61.0197 32.5223 61.0639 32.4456 61.1041L31.0727 61.8237C30.993 61.8655 30.9262 61.8817 30.8723 61.8723C30.8214 61.8613 30.7836 61.8322 30.7588 61.785C30.7403 61.7495 30.7358 61.7124 30.7455 61.6734C30.7552 61.6345 30.7849 61.5869 30.8345 61.5308L30.977 61.3827C31.0425 61.2995 31.0797 61.216 31.0885 61.1323C31.0974 61.0487 31.0858 60.9117 31.0539 60.7215L30.1778 55.2589C30.1575 55.134 30.1247 55.0534 30.0793 55.017C30.0368 54.979 29.9554 54.9746 29.8352 55.0037C29.7417 55.0264 29.671 55.0315 29.6231 55.019C29.5751 55.0065 29.5395 54.9781 29.5163 54.9338C29.4916 54.8866 29.4914 54.8396 29.5159 54.7929C29.5388 54.7433 29.5871 54.6991 29.6609 54.6604L31.5032 53.6948C31.58 53.6546 31.6438 53.64 31.6947 53.6509C31.747 53.6574 31.7856 53.6842 31.8103 53.7314C31.8335 53.7757 31.8366 53.8211 31.8196 53.8677C31.8026 53.9142 31.7604 53.9665 31.6929 54.0244C31.6181 54.09 31.5819 54.1466 31.5843 54.1942C31.5881 54.2374 31.625 54.2934 31.6949 54.3621L35.8772 58.3458C35.9806 58.4497 36.0758 58.5165 36.1629 58.5461C36.2499 58.5758 36.3535 58.576 36.4738 58.5469C36.5658 58.5287 36.6329 58.5274 36.675 58.543C36.7184 58.5541 36.7517 58.5818 36.775 58.6261C36.8013 58.6763 36.803 58.7262 36.7801 58.7758C36.7571 58.8255 36.7073 58.8704 36.6306 58.9107L34.8724 59.8322C34.7956 59.8724 34.7303 59.8878 34.6765 59.8784C34.6256 59.8674 34.587 59.8369 34.5607 59.7867C34.539 59.7453 34.5345 59.7044 34.5471 59.6639C34.5598 59.6234 34.5932 59.5796 34.6475 59.5323L34.932 59.3211C34.9994 59.2632 35.0208 59.2106 34.996 59.1633C34.9727 59.1116 34.9147 59.0404 34.822 58.9497L30.4702 54.7612L30.5662 54.6319L31.5066 60.4221C31.5284 60.5499 31.5571 60.6477 31.5927 60.7157C31.6283 60.7836 31.6784 60.8288 31.7429 60.8514C31.8089 60.8696 31.8954 60.8694 32.0024 60.851L32.3269 60.7486C32.3923 60.7369 32.4452 60.7374 32.4857 60.75C32.5276 60.7582 32.5594 60.7829 32.5811 60.8242ZM37.4511 58.2717C37.4047 58.1831 37.4299 58.0947 37.5266 58.0063L37.7887 57.7956C37.8518 57.7437 37.8925 57.6885 37.9108 57.63C37.9275 57.5685 37.9188 57.5053 37.8848 57.4404L35.3037 52.5158C35.2696 52.4508 35.2233 52.4092 35.1648 52.391C35.1048 52.3698 35.0355 52.3703 34.9569 52.3927L34.6344 52.4883C34.5068 52.5176 34.4197 52.488 34.3733 52.3994C34.3454 52.3463 34.3423 52.2971 34.3638 52.252C34.3837 52.2039 34.4321 52.1597 34.5088 52.1195L36.6656 50.9891C37.2176 50.6997 37.7606 50.5186 38.2945 50.4458C38.8298 50.3685 39.3364 50.3908 39.8144 50.5129C40.2923 50.635 40.7228 50.8496 41.1059 51.1569C41.4875 51.4612 41.8036 51.8525 42.0543 52.3308C42.3498 52.8947 42.4838 53.4662 42.4561 54.0452C42.4298 54.6197 42.2381 55.1624 41.8811 55.6732C41.5271 56.1824 41.0031 56.6189 40.3093 56.9825L37.7585 58.3195C37.6817 58.3597 37.6179 58.3744 37.567 58.3634C37.5161 58.3524 37.4774 58.3219 37.4511 58.2717ZM40.0504 56.6609C40.5199 56.4149 40.8725 56.104 41.1084 55.7282C41.3426 55.3495 41.4507 54.9203 41.4326 54.4405C41.413 53.9578 41.2561 53.436 40.9621 52.875C40.7315 52.4351 40.4599 52.0713 40.1473 51.7836C39.8376 51.4943 39.4974 51.2868 39.1267 51.1612C38.7575 51.0311 38.3704 50.9856 37.9656 51.0246C37.5608 51.0637 37.1503 51.1923 36.734 51.4105L36.1893 51.696L38.8656 56.8021C38.9337 56.932 39.0238 57.0071 39.136 57.0273C39.2467 57.0446 39.3832 57.0106 39.5456 56.9255L40.0504 56.6609ZM45.8491 53.266C45.8832 53.3309 45.9302 53.374 45.9903 53.3952C46.0488 53.4135 46.1173 53.4115 46.1959 53.3891L46.5184 53.2935C46.646 53.2642 46.7331 53.2938 46.7795 53.3824C46.8058 53.4326 46.809 53.4817 46.789 53.5298C46.7691 53.5779 46.7222 53.6213 46.6484 53.66L44.6865 54.6883C44.6127 54.7269 44.5504 54.7408 44.4995 54.7299C44.4486 54.7189 44.41 54.6883 44.3837 54.6381C44.3372 54.5496 44.3624 54.4611 44.4591 54.3728L44.7212 54.162C44.7843 54.1101 44.825 54.0549 44.8433 53.9964C44.86 53.935 44.8513 53.8718 44.8173 53.8068L42.2362 48.8823C42.2021 48.8173 42.1559 48.7757 42.0974 48.7574C42.0373 48.7362 41.968 48.7368 41.8894 48.7592L41.5669 48.8548C41.4393 48.8841 41.3522 48.8544 41.3058 48.7659C41.278 48.7127 41.2748 48.6636 41.2963 48.6184C41.3162 48.5703 41.3631 48.5269 41.4369 48.4883L43.3988 47.46C43.4726 47.4213 43.5349 47.4074 43.5858 47.4184C43.6352 47.4264 43.6738 47.457 43.7017 47.5101C43.7481 47.5987 43.7229 47.6871 43.6262 47.7755L43.3641 47.9862C43.301 48.0381 43.2611 48.0948 43.2444 48.1562C43.2261 48.2147 43.234 48.2765 43.268 48.3414L45.8491 53.266ZM49.606 48.9654L52.2499 47.5797L52.4805 47.9443L49.7614 49.3695L49.606 48.9654ZM51.2382 51.0455C51.2645 51.0957 51.2677 51.1448 51.2477 51.1929C51.2278 51.241 51.1794 51.2851 51.1026 51.3254L49.7298 52.0449C49.6501 52.0867 49.5833 52.1029 49.5294 52.0935C49.4785 52.0825 49.4407 52.0534 49.4159 52.0062C49.3974 51.9708 49.3929 51.9336 49.4026 51.8946C49.4123 51.8557 49.442 51.8082 49.4916 51.752L49.6341 51.6039C49.6996 51.5207 49.7368 51.4372 49.7456 51.3536C49.7545 51.2699 49.7429 51.1329 49.7109 50.9427L48.8349 45.4801C48.8146 45.3552 48.7818 45.2746 48.7364 45.2382C48.6939 45.2002 48.6125 45.1958 48.4923 45.225C48.3988 45.2476 48.3281 45.2527 48.2801 45.2402C48.2322 45.2277 48.1966 45.1993 48.1734 45.155C48.1486 45.1078 48.1485 45.0608 48.1729 45.0141C48.1959 44.9645 48.2442 44.9203 48.318 44.8817L50.1603 43.9161C50.2371 43.8758 50.3009 43.8612 50.3518 43.8721C50.4041 43.8786 50.4426 43.9054 50.4674 43.9527C50.4906 43.997 50.4937 44.0424 50.4767 44.0889C50.4597 44.1355 50.4175 44.1877 50.35 44.2457C50.2752 44.3112 50.239 44.3678 50.2414 44.4155C50.2452 44.4586 50.2821 44.5146 50.352 44.5833L54.5343 48.567C54.6377 48.6709 54.7329 48.7377 54.82 48.7673C54.907 48.797 55.0106 48.7972 55.1308 48.7681C55.2229 48.7499 55.29 48.7487 55.332 48.7643C55.3755 48.7754 55.4088 48.803 55.432 48.8473C55.4583 48.8975 55.46 48.9474 55.4371 48.9971C55.4142 49.0467 55.3644 49.0917 55.2876 49.1319L53.5295 50.0534C53.4527 50.0936 53.3874 50.109 53.3336 50.0996C53.2827 50.0887 53.2441 50.0581 53.2178 50.0079C53.1961 49.9666 53.1916 49.9257 53.2042 49.8852C53.2169 49.8447 53.2503 49.8008 53.3046 49.7535L53.5891 49.5423C53.6565 49.4844 53.6779 49.4318 53.6531 49.3846C53.6298 49.3328 53.5718 49.2616 53.4791 49.1709L49.1273 44.9825L49.2233 44.8532L50.1637 50.6433C50.1855 50.7711 50.2142 50.869 50.2498 50.9369C50.2854 51.0048 50.3355 51.05 50.4 51.0727C50.466 51.0908 50.5524 51.0906 50.6594 51.0722L50.984 50.9698C51.0494 50.9581 51.1023 50.9586 51.1428 50.9712C51.1847 50.9794 51.2165 51.0041 51.2382 51.0455ZM60.6884 44.3931C60.919 44.833 60.9173 45.293 60.6835 45.7731C60.451 46.2487 59.9658 46.6799 59.2277 47.0668L56.4111 48.543C56.3373 48.5817 56.2749 48.5956 56.224 48.5846C56.1731 48.5737 56.1345 48.5431 56.1082 48.4929C56.0618 48.4043 56.087 48.3159 56.1837 48.2276L56.4458 48.0168C56.5089 47.9649 56.5481 47.9105 56.5634 47.8535C56.5801 47.7921 56.5715 47.7289 56.5374 47.6639L53.9563 42.7394C53.9223 42.6744 53.876 42.6328 53.8175 42.6145C53.7604 42.5918 53.6926 42.5916 53.614 42.6139L53.2915 42.7096C53.1638 42.7388 53.0768 42.7092 53.0304 42.6206C53.0025 42.5675 52.9993 42.5183 53.0208 42.4732C53.0408 42.4251 53.0877 42.3817 53.1615 42.343L55.3536 41.1941C55.891 40.9124 56.3851 40.7494 56.836 40.705C57.2883 40.6561 57.6816 40.7134 58.0157 40.877C58.3512 41.0361 58.6111 41.2913 58.7952 41.6427C58.95 41.9379 59.008 42.2462 58.9694 42.5675C58.9309 42.8888 58.787 43.2031 58.5379 43.5106C58.2889 43.818 57.9237 44.0978 57.4425 44.3501L57.6476 44.0845C58.1111 43.8415 58.5452 43.6968 58.9499 43.6503C59.353 43.6008 59.7049 43.6403 60.0055 43.7688C60.3091 43.8957 60.5368 44.1038 60.6884 44.3931ZM57.3811 44.5346L56.1677 45.1706L56.0099 44.8695L57.1569 44.2683C57.4433 44.1182 57.659 43.9374 57.804 43.7259C57.952 43.5128 58.0266 43.278 58.0276 43.0216C58.0287 42.7651 57.9565 42.4981 57.811 42.2206C57.6547 41.9224 57.4559 41.6973 57.2144 41.5454C56.9743 41.389 56.6978 41.3137 56.3848 41.3197C56.0748 41.3242 55.7411 41.42 55.3839 41.6072L54.8348 41.8951L57.5273 47.0322C57.5954 47.1621 57.6893 47.2371 57.8089 47.2572C57.9315 47.2757 58.0799 47.2393 58.2541 47.148L58.8387 46.8416C59.1487 46.6791 59.3815 46.495 59.5371 46.2893C59.6941 46.079 59.7779 45.8583 59.7883 45.627C59.7973 45.3927 59.7406 45.159 59.6184 44.9257C59.4265 44.5596 59.1374 44.3348 58.7512 44.2512C58.3633 44.1647 57.9067 44.2592 57.3811 44.5346ZM66.6999 41.2423C66.9304 41.6822 66.9288 42.1422 66.6949 42.6223C66.4625 43.0979 65.9772 43.5291 65.2391 43.916L62.4226 45.3923C62.3487 45.4309 62.2864 45.4448 62.2355 45.4339C62.1846 45.4229 62.146 45.3923 62.1197 45.3421C62.0732 45.2536 62.0984 45.1651 62.1951 45.0768L62.4572 44.866C62.5203 44.8141 62.5596 44.7597 62.5749 44.7027C62.5916 44.6413 62.5829 44.5781 62.5489 44.5131L59.9678 39.5886C59.9337 39.5236 59.8874 39.482 59.8289 39.4637C59.7718 39.441 59.704 39.4408 59.6254 39.4632L59.3029 39.5588C59.1753 39.5881 59.0882 39.5584 59.0418 39.4698C59.014 39.4167 59.0108 39.3676 59.0323 39.3224C59.0522 39.2743 59.0991 39.2309 59.1729 39.1923L61.3651 38.0433C61.9024 37.7616 62.3965 37.5986 62.8475 37.5542C63.2998 37.5053 63.693 37.5627 64.0271 37.7262C64.3627 37.8853 64.6225 38.1405 64.8066 38.4919C64.9614 38.7871 65.0195 39.0954 64.9809 39.4167C64.9423 39.738 64.7985 40.0523 64.5494 40.3598C64.3003 40.6672 63.9351 40.947 63.4539 41.1993L63.6591 40.9337C64.1226 40.6907 64.5567 40.546 64.9613 40.4995C65.3644 40.45 65.7163 40.4895 66.017 40.618C66.3206 40.7449 66.5482 40.953 66.6999 41.2423ZM63.3926 41.3838L62.1791 42.0198L62.0213 41.7187L63.1683 41.1175C63.4547 40.9674 63.6704 40.7866 63.8155 40.5751C63.9635 40.362 64.038 40.1273 64.0391 39.8708C64.0401 39.6143 63.9679 39.3473 63.8225 39.0698C63.6662 38.7716 63.4673 38.5465 63.2258 38.3946C62.9858 38.2382 62.7093 38.163 62.3963 38.1689C62.0862 38.1734 61.7526 38.2692 61.3953 38.4565L60.8462 38.7443L63.5387 43.8814C63.6068 44.0113 63.7007 44.0863 63.8204 44.1064C63.943 44.1249 64.0914 44.0885 64.2656 43.9972L64.8501 43.6908C65.1601 43.5284 65.3929 43.3442 65.5485 43.1385C65.7056 42.9282 65.7893 42.7075 65.7998 42.4762C65.8087 42.2419 65.7521 42.0082 65.6298 41.7749C65.4379 41.4088 65.1489 41.184 64.7626 41.1004C64.3748 41.0139 63.9181 41.1084 63.3926 41.3838ZM67.9604 39.3453L70.6043 37.9596L70.8349 38.3242L68.1157 39.7494L67.9604 39.3453ZM69.5925 41.4254C69.6188 41.4756 69.622 41.5247 69.6021 41.5728C69.5821 41.6209 69.5338 41.665 69.457 41.7053L68.0841 42.4248C68.0044 42.4666 67.9376 42.4828 67.8838 42.4734C67.8329 42.4624 67.795 42.4333 67.7703 42.3861C67.7517 42.3507 67.7473 42.3135 67.757 42.2745C67.7667 42.2356 67.7963 42.1881 67.8459 42.1319L67.9885 41.9838C68.054 41.9006 68.0912 41.8171 68.1 41.7335C68.1088 41.6498 68.0973 41.5129 68.0653 41.3226L67.1893 35.86C67.169 35.7351 67.1361 35.6545 67.0907 35.6181C67.0482 35.5802 66.9669 35.5757 66.8467 35.6049C66.7532 35.6275 66.6825 35.6326 66.6345 35.6201C66.5866 35.6076 66.551 35.5792 66.5278 35.5349C66.503 35.4877 66.5028 35.4407 66.5273 35.394C66.5502 35.3444 66.5986 35.3002 66.6724 35.2616L68.5147 34.296C68.5914 34.2557 68.6553 34.2411 68.7062 34.252C68.7585 34.2585 68.797 34.2853 68.8218 34.3326C68.845 34.3769 68.8481 34.4223 68.8311 34.4688C68.8141 34.5154 68.7718 34.5676 68.7044 34.6256C68.6296 34.6911 68.5934 34.7477 68.5958 34.7954C68.5996 34.8385 68.6364 34.8945 68.7063 34.9632L72.8887 38.9469C72.9921 39.0508 73.0873 39.1176 73.1743 39.1472C73.2614 39.1769 73.365 39.1771 73.4852 39.148C73.5773 39.1298 73.6444 39.1286 73.6864 39.1442C73.7299 39.1553 73.7632 39.1829 73.7864 39.2272C73.8127 39.2774 73.8144 39.3273 73.7915 39.377C73.7686 39.4266 73.7188 39.4716 73.642 39.5118L71.8838 40.4333C71.8071 40.4735 71.7418 40.4889 71.6879 40.4795C71.637 40.4686 71.5984 40.438 71.5721 40.3878C71.5504 40.3465 71.5459 40.3056 71.5586 40.2651C71.5712 40.2246 71.6047 40.1807 71.6589 40.1334L71.9434 39.9222C72.0109 39.8643 72.0322 39.8117 72.0075 39.7645C71.9841 39.7127 71.9261 39.6415 71.8334 39.5508L67.4817 35.3624L67.5776 35.2331L68.518 41.0232C68.5399 41.151 68.5686 41.2489 68.6042 41.3168C68.6398 41.3847 68.6898 41.43 68.7544 41.4526C68.8203 41.4707 68.9068 41.4705 69.0138 41.4521L69.3384 41.3497C69.4037 41.338 69.4567 41.3385 69.4972 41.3511C69.5391 41.3593 69.5709 41.384 69.5925 41.4254ZM76.9275 37.9704C76.6647 38.1081 76.4233 38.1933 76.2033 38.2258C75.9832 38.2583 75.7979 38.2746 75.6473 38.2745C75.4981 38.2698 75.3999 38.2799 75.3527 38.3047C75.2995 38.3325 75.2683 38.3734 75.2588 38.4273C75.2524 38.4796 75.2513 38.5385 75.2555 38.604C75.2582 38.6666 75.2548 38.7248 75.2454 38.7786C75.236 38.8325 75.2048 38.8733 75.1516 38.9012C75.1044 38.926 75.056 38.9306 75.0065 38.9152C74.9615 38.9011 74.9138 38.864 74.8635 38.8038L73.8046 37.5806C73.7634 37.5307 73.7445 37.4804 73.748 37.4296C73.75 37.3759 73.7729 37.3262 73.8168 37.2807C73.8636 37.2336 73.9153 37.2102 73.972 37.2106C74.0271 37.2081 74.0857 37.2301 74.1477 37.2766C74.4713 37.5134 74.7808 37.6767 75.0762 37.7665C75.3746 37.8547 75.6578 37.8851 75.9256 37.8576C76.1949 37.8256 76.4446 37.7493 76.6749 37.6286C77.0056 37.4553 77.2175 37.2313 77.3106 36.9567C77.4023 36.6791 77.373 36.3971 77.2229 36.1107C77.1299 35.9261 77.0019 35.7787 76.8387 35.6685C76.6756 35.5583 76.4417 35.4927 76.1372 35.4717C75.8311 35.4478 75.4186 35.4758 74.8998 35.5558C74.378 35.6373 73.9347 35.6532 73.57 35.6036C73.2052 35.5539 72.8981 35.4382 72.6486 35.2566C72.3992 35.075 72.1916 34.8263 72.026 34.5104C71.8434 34.162 71.766 33.8168 71.7938 33.4749C71.82 33.1299 71.9398 32.8093 72.1534 32.513C72.3698 32.2151 72.6714 31.9648 73.0582 31.7621C73.3357 31.6167 73.5793 31.5285 73.7889 31.4977C73.9986 31.4668 74.1728 31.4546 74.3116 31.4608C74.4533 31.4656 74.5581 31.4502 74.626 31.4146C74.691 31.3805 74.7175 31.3271 74.7057 31.2543C74.6968 31.1799 74.6894 31.1047 74.6835 31.0288C74.676 30.9499 74.7092 30.8911 74.783 30.8525C74.8362 30.8246 74.8882 30.8199 74.9393 30.8383C74.9888 30.8537 75.0493 30.8973 75.1207 30.969L76.3023 32.1787C76.3525 32.2314 76.379 32.2891 76.3817 32.3516C76.3873 32.4127 76.369 32.4674 76.3267 32.516C76.2769 32.5646 76.2245 32.5902 76.1694 32.5928C76.1127 32.5924 76.0541 32.5704 75.9936 32.5268C75.6322 32.2609 75.2932 32.0772 74.9767 31.9759C74.6631 31.8731 74.3709 31.8362 74.1001 31.8652C73.8278 31.8913 73.5735 31.9662 73.3373 32.09C72.9978 32.268 72.7787 32.507 72.6801 32.8071C72.5799 33.1042 72.6118 33.4093 72.7759 33.7222C72.8733 33.9082 73.006 34.0607 73.1737 34.1798C73.3429 34.2943 73.5792 34.3681 73.8825 34.4011C74.1887 34.4325 74.591 34.4173 75.0893 34.3556C75.6381 34.2825 76.0948 34.2708 76.4596 34.3205C76.8257 34.3657 77.1267 34.4732 77.3626 34.6432C77.5969 34.8101 77.7914 35.0413 77.9461 35.3365C78.101 35.6392 78.1704 35.9547 78.1543 36.283C78.1397 36.6068 78.0315 36.9175 77.83 37.2151C77.6298 37.5082 77.329 37.76 76.9275 37.9704Z" fill="#1F3D2B"/>
<defs>
<filter id="filter0_d_739_447" x="0.903198" y="5.38867" width="48.4205" height="93.9902" filterUnits="userSpaceOnUse" color-interpolation-filters="sRGB">
<feFlood flood-opacity="0" result="BackgroundImageFix"/>
<feColorMatrix in="SourceAlpha" type="matrix" values="0 0 0 0 0 0 0 0 0 0 0 0 0 0 0 0 0 0 127 0" result="hardAlpha"/>
<feOffset dy="5"/>
<feGaussianBlur stdDeviation="2"/>
<feComposite in2="hardAlpha" operator="out"/>
<feColorMatrix type="matrix" values="0 0 0 0 0 0 0 0 0 0 0 0 0 0 0 0 0 0 0.53 0"/>
<feBlend mode="normal" in2="BackgroundImageFix" result="effect1_dropShadow_739_447"/>
<feBlend mode="normal" in="SourceGraphic" in2="effect1_dropShadow_739_447" result="shape"/>
</filter>
<filter id="filter1_d_739_447" x="45.5669" y="3.8252" width="48.4901" height="97.7178" filterUnits="userSpaceOnUse" color-interpolation-filters="sRGB">
<feFlood flood-opacity="0" result="BackgroundImageFix"/>
<feColorMatrix in="SourceAlpha" type="matrix" values="0 0 0 0 0 0 0 0 0 0 0 0 0 0 0 0 0 0 127 0" result="hardAlpha"/>
<feOffset dy="5"/>
<feGaussianBlur stdDeviation="2"/>
<feComposite in2="hardAlpha" operator="out"/>
<feColorMatrix type="matrix" values="0 0 0 0 0 0 0 0 0 0 0 0 0 0 0 0 0 0 0.53 0"/>
<feBlend mode="normal" in2="BackgroundImageFix" result="effect1_dropShadow_739_447"/>
<feBlend mode="normal" in="SourceGraphic" in2="effect1_dropShadow_739_447" result="shape"/>
</filter>
</defs>
</svg>
