<svg width="41" height="18" viewBox="0 0 41 18" fill="none" xmlns="http://www.w3.org/2000/svg">
<path d="M3.67188 4.16406C5.29688 4.16406 6.10938 4.5 6.10938 5.17188C6.10938 5.35417 6.06771 5.5026 5.98438 5.61719C5.90104 5.73177 5.74219 5.85938 5.50781 6C5.30469 6.125 5.17448 6.28906 5.11719 6.49219C5.0651 6.69531 5.03906 7.10677 5.03906 7.72656C5.03906 8.09115 5.10677 8.3151 5.24219 8.39844C5.32031 8.45052 5.4375 8.48177 5.59375 8.49219C5.75521 8.5026 6.13021 8.50781 6.71875 8.50781C7.25521 8.50781 7.58854 8.47917 7.71875 8.42188C7.84896 8.36458 7.91406 8.22135 7.91406 7.99219C7.91406 7.30469 7.88281 6.82552 7.82031 6.55469C7.75781 6.28385 7.63542 6.09896 7.45312 6C7.22396 5.86979 7.07292 5.76042 7 5.67188C6.92708 5.57812 6.89062 5.45573 6.89062 5.30469C6.89062 5.09115 6.97135 4.89844 7.13281 4.72656C7.29427 4.54948 7.50521 4.42969 7.76562 4.36719C8.30729 4.23698 8.98698 4.17188 9.80469 4.17188C10.763 4.17188 11.4688 4.26042 11.9219 4.4375C12.3802 4.60938 12.6094 4.88021 12.6094 5.25C12.6094 5.5625 12.4479 5.79688 12.125 5.95312C11.9219 6.04688 11.7891 6.13802 11.7266 6.22656C11.6641 6.3099 11.6146 6.46875 11.5781 6.70312C11.5573 6.83333 11.5312 7.41146 11.5 8.4375C11.4688 9.46354 11.4531 10.2786 11.4531 10.8828C11.4531 11.9401 11.4922 12.612 11.5703 12.8984C11.612 13.0547 11.6589 13.1589 11.7109 13.2109C11.763 13.263 11.9271 13.3672 12.2031 13.5234C12.401 13.6328 12.5 13.7995 12.5 14.0234C12.5 14.4193 12.263 14.7083 11.7891 14.8906C11.3203 15.0677 10.5573 15.1562 9.5 15.1562C8.57292 15.1562 7.88802 15.0651 7.44531 14.8828C7.04427 14.7161 6.84375 14.4583 6.84375 14.1094C6.84375 13.8125 6.9974 13.5807 7.30469 13.4141C7.45573 13.3307 7.55729 13.2474 7.60938 13.1641C7.66667 13.0807 7.72135 12.9271 7.77344 12.7031C7.86719 12.2656 7.91406 11.7292 7.91406 11.0938C7.91406 10.7656 7.86458 10.5625 7.76562 10.4844C7.67188 10.4062 7.42188 10.3672 7.01562 10.3672C6.08333 10.3672 5.48958 10.4193 5.23438 10.5234C5.13021 10.5651 5.0651 10.6875 5.03906 10.8906C5.00781 11.1406 4.99219 11.4479 4.99219 11.8125C4.99219 12.4062 5.07552 12.8333 5.24219 13.0938C5.29948 13.1771 5.4349 13.2839 5.64844 13.4141C5.86719 13.5391 5.97656 13.7448 5.97656 14.0312C5.97656 14.3958 5.72396 14.6745 5.21875 14.8672C4.71354 15.0599 3.99219 15.1562 3.05469 15.1562C2.20052 15.1562 1.5026 15.0677 0.960938 14.8906C0.726562 14.8125 0.541667 14.7031 0.40625 14.5625C0.276042 14.4167 0.210938 14.2578 0.210938 14.0859C0.210938 13.9141 0.252604 13.7812 0.335938 13.6875C0.419271 13.5938 0.601562 13.474 0.882812 13.3281C1.02865 13.2552 1.13021 13.1615 1.1875 13.0469C1.25 12.9323 1.29688 12.7396 1.32812 12.4688C1.40625 11.8594 1.44531 11.0625 1.44531 10.0781C1.44531 9.89583 1.44271 9.67969 1.4375 9.42969C1.41667 8.17969 1.40625 7.46615 1.40625 7.28906C1.41146 6.84115 1.3724 6.54688 1.28906 6.40625C1.21094 6.26042 1 6.10156 0.65625 5.92969C0.427083 5.82031 0.3125 5.65625 0.3125 5.4375C0.3125 4.91146 0.822917 4.54688 1.84375 4.34375C2.4375 4.22396 3.04688 4.16406 3.67188 4.16406ZM17.5859 7.21094C18.4922 7.21094 19.2604 7.4401 19.8906 7.89844C20.224 8.14323 20.4557 8.42448 20.5859 8.74219C20.7214 9.05469 20.7891 9.48698 20.7891 10.0391L20.7734 11.2031C20.7734 12.0104 20.8307 12.5339 20.9453 12.7734C21.0026 12.888 21.0573 12.9609 21.1094 12.9922C21.1615 13.0234 21.2708 13.0521 21.4375 13.0781C21.6042 13.1042 21.6875 13.2135 21.6875 13.4062C21.6875 13.6562 21.5859 13.9167 21.3828 14.1875C21.1849 14.4583 20.9271 14.6849 20.6094 14.8672C20.2188 15.0964 19.8099 15.2109 19.3828 15.2109C18.8359 15.2109 18.4036 15.0234 18.0859 14.6484C17.9766 14.513 17.875 14.4453 17.7812 14.4453C17.6771 14.4453 17.5391 14.5104 17.3672 14.6406C16.8464 15.0208 16.2552 15.2109 15.5938 15.2109C14.9115 15.2109 14.3594 15.0651 13.9375 14.7734C13.6615 14.5807 13.4427 14.3307 13.2812 14.0234C13.1198 13.7109 13.0391 13.3854 13.0391 13.0469C13.0391 12.5052 13.2578 12.026 13.6953 11.6094C14.3776 10.9531 15.3984 10.6224 16.7578 10.6172C17.0599 10.6172 17.25 10.5885 17.3281 10.5312C17.4062 10.4688 17.4453 10.3281 17.4453 10.1094C17.4453 9.55729 17.388 9.15885 17.2734 8.91406C17.1589 8.66406 16.9714 8.53906 16.7109 8.53906C16.5547 8.53906 16.4141 8.58594 16.2891 8.67969C16.1693 8.77344 16.0182 8.94531 15.8359 9.19531C15.3724 9.85677 14.888 10.1875 14.3828 10.1875C14.1276 10.1875 13.9193 10.112 13.7578 9.96094C13.5964 9.8099 13.5156 9.61198 13.5156 9.36719C13.5156 9.11719 13.6146 8.86719 13.8125 8.61719C14.0156 8.36719 14.2891 8.14844 14.6328 7.96094C15.5755 7.46094 16.5599 7.21094 17.5859 7.21094ZM17.0625 11.7344C16.8333 11.7344 16.6328 11.8281 16.4609 12.0156C16.2943 12.2031 16.2109 12.4271 16.2109 12.6875C16.2109 12.9375 16.2708 13.1406 16.3906 13.2969C16.5104 13.4479 16.6693 13.5234 16.8672 13.5234C17.2839 13.5234 17.4922 13.1719 17.4922 12.4688C17.4922 12.1823 17.4609 11.9896 17.3984 11.8906C17.3411 11.7917 17.2292 11.7396 17.0625 11.7344ZM31.3359 4.96094V12.0938C31.3359 12.5 31.3516 12.7604 31.3828 12.875C31.4193 12.9896 31.5156 13.1016 31.6719 13.2109C31.8594 13.3411 31.9844 13.4557 32.0469 13.5547C32.1146 13.6536 32.1484 13.7734 32.1484 13.9141C32.1484 14.3307 31.7292 14.6484 30.8906 14.8672C30.1354 15.0599 29.3802 15.1562 28.625 15.1562C28.4583 15.1562 28.349 15.1302 28.2969 15.0781C28.25 15.0312 28.2188 14.9141 28.2031 14.7266C28.1771 14.4609 28.0833 14.3281 27.9219 14.3281C27.8333 14.3281 27.6953 14.4062 27.5078 14.5625C26.9766 14.9948 26.3854 15.2109 25.7344 15.2109C24.9271 15.2109 24.2005 14.9115 23.5547 14.3125C23.1745 13.9531 22.8672 13.5391 22.6328 13.0703C22.3203 12.4609 22.1641 11.8438 22.1641 11.2188C22.1641 10.4844 22.3672 9.77604 22.7734 9.09375C23.1484 8.46354 23.6589 7.97917 24.3047 7.64062C24.8464 7.35938 25.3802 7.21875 25.9062 7.21875C26.5104 7.21875 27.0521 7.35417 27.5312 7.625C27.6094 7.66667 27.6719 7.6875 27.7188 7.6875C27.8854 7.6875 27.9688 7.46354 27.9688 7.01562C27.9688 6.82292 27.9219 6.67708 27.8281 6.57812C27.7396 6.47396 27.5781 6.38542 27.3438 6.3125C27.0156 6.20833 26.8516 6.02604 26.8516 5.76562C26.8516 5.38542 27.2292 5.08854 27.9844 4.875C29.3177 4.50521 30.2109 4.32031 30.6641 4.32031C31.112 4.32031 31.3359 4.53385 31.3359 4.96094ZM27.0938 8.89062C26.7552 8.89062 26.487 9.07031 26.2891 9.42969C26.0234 9.90885 25.8906 10.5391 25.8906 11.3203C25.8906 12.0286 26.0182 12.5625 26.2734 12.9219C26.4557 13.1823 26.7031 13.3125 27.0156 13.3125C27.3542 13.3125 27.599 13.1172 27.75 12.7266C27.9062 12.3307 27.9844 11.6953 27.9844 10.8203C27.9844 10.0182 27.8932 9.48438 27.7109 9.21875C27.5703 9.01042 27.3646 8.90104 27.0938 8.89062ZM36.9531 7.75781V12.2969C36.9531 12.6562 36.9844 12.9193 37.0469 13.0859C37.1146 13.2526 37.2474 13.4062 37.4453 13.5469C37.6068 13.6615 37.7135 13.7604 37.7656 13.8438C37.8229 13.9219 37.8516 14.0234 37.8516 14.1484C37.8516 14.8203 37 15.1562 35.2969 15.1562C34.3802 15.1562 33.6536 15.0833 33.1172 14.9375C32.9349 14.8854 32.7865 14.7943 32.6719 14.6641C32.5625 14.5339 32.5078 14.3854 32.5078 14.2188C32.5078 14.0781 32.5365 13.9688 32.5938 13.8906C32.651 13.8125 32.7969 13.6875 33.0312 13.5156C33.1927 13.3958 33.3073 13.2005 33.375 12.9297C33.4427 12.6589 33.4766 12.2552 33.4766 11.7188C33.4766 11.5469 33.4635 11.2266 33.4375 10.7578C33.4167 10.2839 33.401 10.0078 33.3906 9.92969C33.3594 9.71615 33.2135 9.55208 32.9531 9.4375C32.6302 9.29688 32.4688 9.08854 32.4688 8.8125C32.4688 8.48438 32.6797 8.23958 33.1016 8.07812C33.6849 7.85417 34.3099 7.66406 34.9766 7.50781C35.6432 7.35156 36.1589 7.27344 36.5234 7.27344C36.8099 7.27344 36.9531 7.4349 36.9531 7.75781ZM35.4062 4.33594C35.8594 4.33594 36.2188 4.42188 36.4844 4.59375C36.75 4.76042 36.8828 4.98698 36.8828 5.27344C36.8828 5.67448 36.6823 5.99219 36.2812 6.22656C35.6458 6.59635 34.8776 6.78125 33.9766 6.78125C33.5964 6.78125 33.2943 6.70833 33.0703 6.5625C32.7682 6.375 32.6172 6.11458 32.6172 5.78125C32.6172 5.33333 32.9375 4.98177 33.5781 4.72656C34.2292 4.46615 34.8385 4.33594 35.4062 4.33594Z" fill="#FFDF88"/>
<path d="M21.27 16.06C21.08 16.06 20.92 16 20.79 15.88C20.66 15.76 20.595 15.6 20.595 15.4C20.595 15.19 20.65 14.955 20.76 14.695C20.88 14.425 20.985 14.2 21.075 14.02C20.955 14.17 20.8 14.36 20.61 14.59C20.42 14.81 20.215 15.03 19.995 15.25C19.775 15.47 19.55 15.655 19.32 15.805C19.09 15.945 18.87 16.015 18.66 16.015C18.44 16.015 18.28 15.935 18.18 15.775C18.09 15.615 18.045 15.44 18.045 15.25C18.045 15.13 18.06 15.01 18.09 14.89C18.16 14.63 18.295 14.36 18.495 14.08C18.695 13.79 18.925 13.515 19.185 13.255C19.455 12.985 19.73 12.735 20.01 12.505C20.29 12.275 20.54 12.085 20.76 11.935C20.86 11.865 20.965 11.805 21.075 11.755C21.195 11.695 21.32 11.665 21.45 11.665C21.61 11.665 21.755 11.71 21.885 11.8C22.025 11.88 22.15 11.975 22.26 12.085C22.29 12.035 22.31 11.995 22.32 11.965C22.34 11.935 22.38 11.92 22.44 11.92C22.48 11.92 22.57 11.935 22.71 11.965C22.86 11.995 23 12.03 23.13 12.07C23.26 12.11 23.325 12.15 23.325 12.19C23.325 12.2 23.32 12.205 23.31 12.205C23.24 12.305 23.165 12.405 23.085 12.505C23.005 12.605 22.925 12.705 22.845 12.805C22.595 13.145 22.35 13.5 22.11 13.87C21.88 14.24 21.68 14.625 21.51 15.025C21.49 15.085 21.47 15.15 21.45 15.22C21.43 15.28 21.42 15.345 21.42 15.415C21.42 15.595 21.51 15.685 21.69 15.685C21.83 15.685 22 15.61 22.2 15.46C22.4 15.31 22.605 15.125 22.815 14.905C23.035 14.685 23.24 14.465 23.43 14.245C23.62 14.015 23.78 13.825 23.91 13.675C24.04 13.525 24.115 13.45 24.135 13.45C24.165 13.45 24.18 13.47 24.18 13.51C24.18 13.53 24.105 13.63 23.955 13.81C23.805 13.98 23.625 14.18 23.415 14.41C23.205 14.64 23.015 14.85 22.845 15.04C22.675 15.22 22.565 15.335 22.515 15.385C22.355 15.535 22.165 15.685 21.945 15.835C21.725 15.985 21.5 16.06 21.27 16.06ZM18.825 15.67C18.905 15.67 18.985 15.65 19.065 15.61C19.155 15.56 19.23 15.52 19.29 15.49C19.68 15.26 20.05 14.96 20.4 14.59C20.75 14.22 21.075 13.825 21.375 13.405C21.675 12.985 21.945 12.585 22.185 12.205C22.165 12.195 22.13 12.19 22.08 12.19C21.98 12.19 21.875 12.225 21.765 12.295C21.195 12.585 20.65 12.98 20.13 13.48C19.62 13.97 19.195 14.495 18.855 15.055C18.815 15.115 18.775 15.19 18.735 15.28C18.705 15.36 18.69 15.44 18.69 15.52C18.69 15.62 18.735 15.67 18.825 15.67ZM24.0573 16.075C23.9773 16.075 23.8573 16.055 23.6973 16.015C23.5473 15.975 23.4123 15.915 23.2923 15.835C23.1723 15.755 23.1123 15.665 23.1123 15.565C23.1123 15.405 23.1823 15.16 23.3223 14.83C23.4723 14.49 23.6623 14.105 23.8923 13.675C24.1223 13.235 24.3773 12.785 24.6573 12.325C24.9373 11.855 25.2123 11.405 25.4823 10.975C25.7623 10.545 26.0173 10.17 26.2473 9.85C26.4773 9.53 26.6523 9.3 26.7723 9.16C26.7823 9.14 26.7973 9.135 26.8173 9.145C26.8373 9.145 26.8523 9.145 26.8623 9.145C26.9023 9.145 26.9923 9.16 27.1323 9.19C27.2723 9.21 27.4073 9.245 27.5373 9.295C27.6673 9.335 27.7323 9.38 27.7323 9.43C27.7323 9.45 27.7223 9.465 27.7023 9.475C27.6923 9.485 27.6773 9.5 27.6573 9.52C27.5173 9.68 27.3823 9.85 27.2523 10.03C27.1223 10.21 26.9873 10.39 26.8473 10.57C26.0673 11.63 25.3473 12.725 24.6873 13.855C24.9173 13.535 25.1573 13.23 25.4073 12.94C25.6673 12.64 25.9473 12.365 26.2473 12.115C26.3373 12.035 26.4673 11.93 26.6373 11.8C26.8173 11.67 26.9623 11.605 27.0723 11.605C27.1723 11.605 27.2873 11.645 27.4173 11.725C27.5473 11.795 27.6623 11.885 27.7623 11.995C27.8723 12.105 27.9273 12.21 27.9273 12.31C27.9273 12.39 27.9123 12.47 27.8823 12.55C27.8623 12.62 27.8323 12.695 27.7923 12.775C27.5723 13.255 27.2723 13.71 26.8923 14.14C26.5123 14.56 26.0873 14.935 25.6173 15.265C25.1573 15.585 24.6773 15.845 24.1773 16.045C24.1573 16.055 24.1373 16.06 24.1173 16.06C24.0973 16.07 24.0773 16.075 24.0573 16.075ZM24.0423 15.505C24.0623 15.505 24.0873 15.5 24.1173 15.49C24.1473 15.48 24.1723 15.47 24.1923 15.46C24.8323 15.12 25.4073 14.68 25.9173 14.14C26.4373 13.6 26.8523 13.01 27.1623 12.37C27.1823 12.33 27.1973 12.29 27.2073 12.25C27.2273 12.2 27.2373 12.155 27.2373 12.115C27.2373 12.045 27.2023 12.01 27.1323 12.01C26.9623 12.01 26.7423 12.1 26.4723 12.28C26.2123 12.46 25.9373 12.69 25.6473 12.97C25.3573 13.25 25.0823 13.55 24.8223 13.87C24.5623 14.18 24.3523 14.475 24.1923 14.755C24.0323 15.025 23.9523 15.24 23.9523 15.4C23.9523 15.47 23.9823 15.505 24.0423 15.505ZM28.2761 16.075C28.1961 16.075 28.0761 16.055 27.9161 16.015C27.7661 15.975 27.6311 15.915 27.5111 15.835C27.3911 15.755 27.3311 15.665 27.3311 15.565C27.3311 15.405 27.4011 15.16 27.5411 14.83C27.6911 14.49 27.8811 14.105 28.1111 13.675C28.3411 13.235 28.5961 12.785 28.8761 12.325C29.1561 11.855 29.4311 11.405 29.7011 10.975C29.9811 10.545 30.2361 10.17 30.4661 9.85C30.6961 9.53 30.8711 9.3 30.9911 9.16C31.0011 9.14 31.0161 9.135 31.0361 9.145C31.0561 9.145 31.0711 9.145 31.0811 9.145C31.1211 9.145 31.2111 9.16 31.3511 9.19C31.4911 9.21 31.6261 9.245 31.7561 9.295C31.8861 9.335 31.9511 9.38 31.9511 9.43C31.9511 9.45 31.9411 9.465 31.9211 9.475C31.9111 9.485 31.8961 9.5 31.8761 9.52C31.7361 9.68 31.6011 9.85 31.4711 10.03C31.3411 10.21 31.2061 10.39 31.0661 10.57C30.2861 11.63 29.5661 12.725 28.9061 13.855C29.1361 13.535 29.3761 13.23 29.6261 12.94C29.8861 12.64 30.1661 12.365 30.4661 12.115C30.5561 12.035 30.6861 11.93 30.8561 11.8C31.0361 11.67 31.1811 11.605 31.2911 11.605C31.3911 11.605 31.5061 11.645 31.6361 11.725C31.7661 11.795 31.8811 11.885 31.9811 11.995C32.0911 12.105 32.1461 12.21 32.1461 12.31C32.1461 12.39 32.1311 12.47 32.1011 12.55C32.0811 12.62 32.0511 12.695 32.0111 12.775C31.7911 13.255 31.4911 13.71 31.1111 14.14C30.7311 14.56 30.3061 14.935 29.8361 15.265C29.3761 15.585 28.8961 15.845 28.3961 16.045C28.3761 16.055 28.3561 16.06 28.3361 16.06C28.3161 16.07 28.2961 16.075 28.2761 16.075ZM28.2611 15.505C28.2811 15.505 28.3061 15.5 28.3361 15.49C28.3661 15.48 28.3911 15.47 28.4111 15.46C29.0511 15.12 29.6261 14.68 30.1361 14.14C30.6561 13.6 31.0711 13.01 31.3811 12.37C31.4011 12.33 31.4161 12.29 31.4261 12.25C31.4461 12.2 31.4561 12.155 31.4561 12.115C31.4561 12.045 31.4211 12.01 31.3511 12.01C31.1811 12.01 30.9611 12.1 30.6911 12.28C30.4311 12.46 30.1561 12.69 29.8661 12.97C29.5761 13.25 29.3011 13.55 29.0411 13.87C28.7811 14.18 28.5711 14.475 28.4111 14.755C28.2511 15.025 28.1711 15.24 28.1711 15.4C28.1711 15.47 28.2011 15.505 28.2611 15.505ZM34.8198 16.06C34.6298 16.06 34.4698 16 34.3398 15.88C34.2098 15.76 34.1448 15.6 34.1448 15.4C34.1448 15.19 34.1998 14.955 34.3098 14.695C34.4298 14.425 34.5348 14.2 34.6248 14.02C34.5048 14.17 34.3498 14.36 34.1598 14.59C33.9698 14.81 33.7648 15.03 33.5448 15.25C33.3248 15.47 33.0998 15.655 32.8698 15.805C32.6398 15.945 32.4198 16.015 32.2098 16.015C31.9898 16.015 31.8298 15.935 31.7298 15.775C31.6398 15.615 31.5948 15.44 31.5948 15.25C31.5948 15.13 31.6098 15.01 31.6398 14.89C31.7098 14.63 31.8448 14.36 32.0448 14.08C32.2448 13.79 32.4748 13.515 32.7348 13.255C33.0048 12.985 33.2798 12.735 33.5598 12.505C33.8398 12.275 34.0898 12.085 34.3098 11.935C34.4098 11.865 34.5148 11.805 34.6248 11.755C34.7448 11.695 34.8698 11.665 34.9998 11.665C35.1598 11.665 35.3048 11.71 35.4348 11.8C35.5748 11.88 35.6998 11.975 35.8098 12.085C35.8398 12.035 35.8598 11.995 35.8698 11.965C35.8898 11.935 35.9298 11.92 35.9898 11.92C36.0298 11.92 36.1198 11.935 36.2598 11.965C36.4098 11.995 36.5498 12.03 36.6798 12.07C36.8098 12.11 36.8748 12.15 36.8748 12.19C36.8748 12.2 36.8698 12.205 36.8598 12.205C36.7898 12.305 36.7148 12.405 36.6348 12.505C36.5548 12.605 36.4748 12.705 36.3948 12.805C36.1448 13.145 35.8998 13.5 35.6598 13.87C35.4298 14.24 35.2298 14.625 35.0598 15.025C35.0398 15.085 35.0198 15.15 34.9998 15.22C34.9798 15.28 34.9698 15.345 34.9698 15.415C34.9698 15.595 35.0598 15.685 35.2398 15.685C35.3798 15.685 35.5498 15.61 35.7498 15.46C35.9498 15.31 36.1548 15.125 36.3648 14.905C36.5848 14.685 36.7898 14.465 36.9798 14.245C37.1698 14.015 37.3298 13.825 37.4598 13.675C37.5898 13.525 37.6648 13.45 37.6848 13.45C37.7148 13.45 37.7298 13.47 37.7298 13.51C37.7298 13.53 37.6548 13.63 37.5048 13.81C37.3548 13.98 37.1748 14.18 36.9648 14.41C36.7548 14.64 36.5648 14.85 36.3948 15.04C36.2248 15.22 36.1148 15.335 36.0648 15.385C35.9048 15.535 35.7148 15.685 35.4948 15.835C35.2748 15.985 35.0498 16.06 34.8198 16.06ZM32.3748 15.67C32.4548 15.67 32.5348 15.65 32.6148 15.61C32.7048 15.56 32.7798 15.52 32.8398 15.49C33.2298 15.26 33.5998 14.96 33.9498 14.59C34.2998 14.22 34.6248 13.825 34.9248 13.405C35.2248 12.985 35.4948 12.585 35.7348 12.205C35.7148 12.195 35.6798 12.19 35.6298 12.19C35.5298 12.19 35.4248 12.225 35.3148 12.295C34.7448 12.585 34.1998 12.98 33.6798 13.48C33.1698 13.97 32.7448 14.495 32.4048 15.055C32.3648 15.115 32.3248 15.19 32.2848 15.28C32.2548 15.36 32.2398 15.44 32.2398 15.52C32.2398 15.62 32.2848 15.67 32.3748 15.67ZM37.4871 16.555C37.1971 16.555 36.9821 16.44 36.8421 16.21C36.7121 15.99 36.6471 15.75 36.6471 15.49C36.6471 15.47 36.6521 15.44 36.6621 15.4C36.6621 15.36 36.6821 15.34 36.7221 15.34C36.7521 15.34 36.7721 15.36 36.7821 15.4C36.7921 15.43 36.8021 15.455 36.8121 15.475C36.9021 15.775 37.1071 15.925 37.4271 15.925C37.5971 15.925 37.7371 15.87 37.8471 15.76C37.9571 15.65 38.0121 15.505 38.0121 15.325C38.0121 15.125 37.9621 14.915 37.8621 14.695C37.7621 14.475 37.6571 14.24 37.5471 13.99C37.4471 13.74 37.3971 13.48 37.3971 13.21C37.3971 12.99 37.4321 12.795 37.5021 12.625C37.5721 12.445 37.7021 12.275 37.8921 12.115C38.0921 11.945 38.3221 11.795 38.5821 11.665C38.8421 11.535 39.1021 11.435 39.3621 11.365C39.6221 11.295 39.8421 11.26 40.0221 11.26C40.2321 11.26 40.3721 11.31 40.4421 11.41C40.5121 11.51 40.5471 11.66 40.5471 11.86C40.5471 11.9 40.5421 11.955 40.5321 12.025C40.5221 12.085 40.4921 12.125 40.4421 12.145C40.2221 12.215 39.9871 12.315 39.7371 12.445C39.4871 12.565 39.3171 12.74 39.2271 12.97C39.2171 13 39.1971 13.015 39.1671 13.015C39.1171 13.015 39.0921 12.99 39.0921 12.94C39.0921 12.8 39.1771 12.645 39.3471 12.475C39.5171 12.295 39.6571 12.17 39.7671 12.1C39.4771 12.18 39.1871 12.295 38.8971 12.445C38.6171 12.585 38.3821 12.77 38.1921 13C38.0121 13.23 37.9221 13.52 37.9221 13.87C37.9221 14.18 37.9871 14.475 38.1171 14.755C38.2471 15.025 38.3121 15.315 38.3121 15.625C38.3121 15.875 38.2421 16.09 38.1021 16.27C37.9721 16.46 37.7671 16.555 37.4871 16.555Z" fill="#2E6B4E"/>
</svg>
