<svg width="21" height="21" viewBox="0 0 21 21" fill="none" xmlns="http://www.w3.org/2000/svg">
<path d="M20.8014 20.8001V13.1821C20.8014 9.43813 19.9954 6.57812 15.6274 6.57812C13.5214 6.57812 12.1174 7.72213 11.5454 8.81413H11.4934V6.91612H7.35938V20.8001H11.6754V13.9101C11.6754 12.0901 12.0134 10.3481 14.2494 10.3481C16.4594 10.3481 16.4854 12.4021 16.4854 14.0141V20.7741H20.8014V20.8001Z" fill="white"/>
<path d="M0.335938 6.91602H4.65194V20.8H0.335938V6.91602Z" fill="white"/>
<path d="M2.496 0C1.118 0 0 1.118 0 2.496C0 3.874 1.118 5.018 2.496 5.018C3.874 5.018 4.992 3.874 4.992 2.496C4.992 1.118 3.874 0 2.496 0Z" fill="white"/>
</svg>
