<svg width="30" height="21" viewBox="0 0 30 21" fill="none" xmlns="http://www.w3.org/2000/svg">
<path d="M2.36636 0.01846C2.74993 -0.0141692 3.43378 0.00637415 3.83959 0.00646412L6.6072 0.00650897L15.3884 0.00641882L23.3248 0.00637397L25.7674 0.00596898C26.1466 0.00571407 26.7824 -0.0124445 27.1443 0.0239934C27.6302 0.0733571 28.0917 0.262055 28.4736 0.567563C29.0219 0.997156 29.3719 1.63214 29.4435 2.32626C29.477 2.62928 29.4644 3.07032 29.4641 3.38663L29.4634 5.04118L29.4637 10.555L29.4638 15.8638V17.4514C29.464 17.7771 29.4756 18.204 29.4371 18.5204C29.3795 18.9926 29.1904 19.439 28.8914 19.8082C28.4599 20.3519 27.8297 20.7003 27.1412 20.7761C26.6413 20.813 25.9605 20.7935 25.4425 20.7934L22.5399 20.7932L13.3539 20.7931L5.93572 20.7932L3.67056 20.794C2.67596 20.7941 1.8326 20.8988 0.992044 20.2296C0.445249 19.7995 0.0946218 19.1661 0.0195972 18.473C-0.0104673 18.1824 0.00289024 17.7452 0.00334611 17.44L0.00389015 15.7252L0.00342382 10.032L0.00328482 4.81866L0.0033192 3.28316C0.00333115 2.97989 -0.00758117 2.55913 0.0278312 2.26887C0.0884445 1.78215 0.286911 1.32307 0.599697 0.946068C1.04839 0.398014 1.66632 0.0875571 2.36636 0.01846ZM20.7709 7.4708L24.753 3.46225L25.9029 2.30499C26.0302 2.17692 26.3574 1.83299 26.4784 1.74467L12.0766 1.74326L6.05336 1.74322C5.04912 1.7432 4.01543 1.72914 3.0143 1.74344C3.06459 1.83994 3.6773 2.4299 3.78314 2.53638L5.84255 4.60804L11.2614 10.0625L13.0644 11.8779C13.3913 12.2075 13.7182 12.5389 14.0473 12.8663C14.1427 12.969 14.2784 13.0456 14.4103 13.0868C14.6391 13.1584 14.9983 13.1512 15.2061 13.0211C15.4445 12.8716 15.703 12.58 15.9047 12.3764L16.7487 11.5245C18.0843 10.1804 19.4242 8.80047 20.7709 7.4708ZM1.74089 2.9439C1.72042 3.0936 1.72873 3.43988 1.72894 3.60365L1.73029 4.78721L1.73018 8.98623L1.7298 14.9657V16.8602C1.72985 17.1415 1.71664 17.6065 1.74015 17.8774C1.87832 17.703 2.08824 17.4996 2.24878 17.3376L3.02377 16.5579L5.44098 14.1257L7.86168 11.6894C7.99361 11.5567 9.09491 10.4762 9.11342 10.3966C9.05429 10.2695 8.19779 9.43623 8.04157 9.27903L3.31902 4.52321L2.20255 3.39702C2.1391 3.33302 1.79282 2.97517 1.74089 2.9439ZM27.7079 2.94948L22.7078 7.98312L21.1051 9.59522C20.9144 9.78705 20.4755 10.2036 20.3153 10.3956C20.6098 10.7245 21.0368 11.1286 21.353 11.4465L23.1221 13.2258C23.4262 13.5317 23.7669 13.8616 24.0622 14.1728L26.4955 16.6207L27.2894 17.4195C27.4193 17.5501 27.6 17.7417 27.7362 17.8609L27.7366 6.44421C27.7366 6.16888 27.7525 3.02762 27.7232 2.96022L27.7079 2.94948ZM19.0831 11.6302C18.6388 12.099 18.1115 12.6103 17.6543 13.0697C17.2555 13.4701 16.5621 14.2314 16.1084 14.5015C15.7083 14.7363 15.2552 14.8649 14.7919 14.8756C14.0602 14.8912 13.3532 14.6108 12.8299 14.0975C12.6109 13.8858 10.442 11.6684 10.365 11.6434C10.1139 11.8698 9.84471 12.1528 9.60464 12.395L8.40094 13.6085L4.66126 17.3726L3.59079 18.4509C3.41186 18.6315 3.1698 18.8911 2.98804 19.0516C3.71961 19.0739 4.52226 19.0562 5.26214 19.056L9.48573 19.0554H22.3477L25.0886 19.0563C25.4923 19.0563 26.0856 19.0767 26.4692 19.0525C25.8984 18.4915 25.3289 17.9038 24.7635 17.3351L21.2729 13.8204L19.8227 12.3582C19.6696 12.2036 19.2416 11.752 19.0831 11.6302Z" fill="white"/>
</svg>
